<mxfile host="app.diagrams.net" modified="2023-11-28T21:41:39.512Z" agent="Mozilla/5.0 (X11; Linux x86_64) AppleWebKit/537.36 (KHTML, like Gecko) Chrome/118.0.0.0 Safari/537.36" etag="ndd-DRShCXwE76_R7U7L" version="22.1.4" type="github">
  <diagram id="C5RBs43oDa-KdzZeNtuy" name="Page-1">
    <mxGraphModel dx="4674" dy="2936" grid="1" gridSize="10" guides="1" tooltips="1" connect="1" arrows="1" fold="1" page="1" pageScale="1" pageWidth="827" pageHeight="1169" math="0" shadow="0">
      <root>
        <mxCell id="WIyWlLk6GJQsqaUBKTNV-0" />
        <mxCell id="WIyWlLk6GJQsqaUBKTNV-1" parent="WIyWlLk6GJQsqaUBKTNV-0" />
        <mxCell id="VlVq8zEwPOwb3AWTw42Q-14" style="edgeStyle=orthogonalEdgeStyle;rounded=0;orthogonalLoop=1;jettySize=auto;html=1;exitX=0.5;exitY=0;exitDx=0;exitDy=0;" edge="1" parent="WIyWlLk6GJQsqaUBKTNV-1" source="jCgJ07AGniD74sEElGV5-0">
          <mxGeometry relative="1" as="geometry">
            <mxPoint x="594" y="-530" as="targetPoint" />
          </mxGeometry>
        </mxCell>
        <mxCell id="jCgJ07AGniD74sEElGV5-0" value="Ronda" style="swimlane;fontStyle=1;align=center;verticalAlign=top;childLayout=stackLayout;horizontal=1;startSize=26;horizontalStack=0;resizeParent=1;resizeParentMax=0;resizeLast=0;collapsible=1;marginBottom=0;whiteSpace=wrap;html=1;" parent="WIyWlLk6GJQsqaUBKTNV-1" vertex="1">
          <mxGeometry x="434" y="-415" width="330" height="500" as="geometry">
            <mxRectangle x="320" y="50" width="80" height="30" as="alternateBounds" />
          </mxGeometry>
        </mxCell>
        <mxCell id="VlVq8zEwPOwb3AWTw42Q-24" style="edgeStyle=orthogonalEdgeStyle;rounded=0;orthogonalLoop=1;jettySize=auto;html=1;" edge="1" parent="jCgJ07AGniD74sEElGV5-0" source="jCgJ07AGniD74sEElGV5-1">
          <mxGeometry relative="1" as="geometry">
            <mxPoint x="-214" y="138" as="targetPoint" />
          </mxGeometry>
        </mxCell>
        <mxCell id="jCgJ07AGniD74sEElGV5-1" value="&lt;div&gt;&lt;span style=&quot;background-color: initial;&quot;&gt;&amp;nbsp; &amp;nbsp; contador: int&lt;/span&gt;&lt;/div&gt;&lt;div&gt;&lt;span style=&quot;background-color: initial;&quot;&gt;&amp;nbsp; &amp;nbsp; inicio: Integer&lt;/span&gt;&lt;/div&gt;&lt;div&gt;&amp;nbsp; &amp;nbsp; terminado: boolean&lt;/div&gt;&lt;div&gt;&amp;nbsp; &amp;nbsp; etapaDeDescarte: boolean&lt;/div&gt;&lt;div&gt;&amp;nbsp; &amp;nbsp; etapaDeApuestas: boolean&lt;/div&gt;&lt;div&gt;&amp;nbsp; &amp;nbsp; hayApuesta: boolean&lt;/div&gt;&lt;div&gt;&lt;span style=&quot;background-color: initial;&quot;&gt;&amp;nbsp; &amp;nbsp; segundasApuestas: boolean&lt;/span&gt;&lt;/div&gt;&lt;div&gt;&amp;nbsp; &amp;nbsp; contadorDescartes: int&lt;/div&gt;&lt;div&gt;&amp;nbsp; &amp;nbsp; jugadores: ArrayList&amp;lt;Jugador&amp;gt;&lt;/div&gt;&lt;div&gt;&amp;nbsp; &amp;nbsp; jugando: ArrayList&amp;lt;Jugador&amp;gt;&lt;/div&gt;&lt;div&gt;&amp;nbsp; &amp;nbsp; jugadorAEliminar: Jugador&lt;/div&gt;&lt;div&gt;&amp;nbsp; &amp;nbsp; jugadorActual: Jugador&lt;/div&gt;&lt;div&gt;&amp;nbsp; &amp;nbsp; baraja: Baraja&lt;/div&gt;&lt;div&gt;&amp;nbsp; &amp;nbsp; notificador: Notificador&lt;/div&gt;" style="text;strokeColor=none;fillColor=none;align=left;verticalAlign=top;spacingLeft=4;spacingRight=4;overflow=hidden;rotatable=0;points=[[0,0.5],[1,0.5]];portConstraint=eastwest;whiteSpace=wrap;html=1;" parent="jCgJ07AGniD74sEElGV5-0" vertex="1">
          <mxGeometry y="26" width="330" height="224" as="geometry" />
        </mxCell>
        <mxCell id="jCgJ07AGniD74sEElGV5-2" value="" style="line;strokeWidth=1;fillColor=none;align=left;verticalAlign=middle;spacingTop=-1;spacingLeft=3;spacingRight=3;rotatable=0;labelPosition=right;points=[];portConstraint=eastwest;strokeColor=inherit;" parent="jCgJ07AGniD74sEElGV5-0" vertex="1">
          <mxGeometry y="250" width="330" height="8" as="geometry" />
        </mxCell>
        <mxCell id="jCgJ07AGniD74sEElGV5-3" value="&lt;span style=&quot;border-color: var(--border-color); color: rgb(31, 35, 40); font-family: ui-monospace, SFMono-Regular, &amp;quot;SF Mono&amp;quot;, Menlo, Consolas, &amp;quot;Liberation Mono&amp;quot;, monospace; background-color: rgb(255, 255, 255);&quot;&gt;+ agregarAlNotificador&lt;span style=&quot;&quot;&gt;(&lt;/span&gt;&lt;span style=&quot;box-sizing: border-box; color: var(--color-prettylights-syntax-storage-modifier-import); display: inline-block;&quot; class=&quot;pl-smi&quot;&gt;Observer&lt;/span&gt;&lt;span style=&quot;&quot;&gt;): void&lt;/span&gt;&lt;br&gt;&lt;/span&gt;+ getApuestaMin&lt;span style=&quot;color: rgb(31, 35, 40); font-family: ui-monospace, SFMono-Regular, &amp;quot;SF Mono&amp;quot;, Menlo, Consolas, &amp;quot;Liberation Mono&amp;quot;, monospace; background-color: rgb(255, 255, 255);&quot;&gt;():&amp;nbsp;&lt;/span&gt;Integer&lt;br&gt;+ getHayApuestas(); boolean&lt;br&gt;+ getApuestas():&amp;nbsp;Integer&lt;br&gt;+&amp;nbsp;termino&lt;span style=&quot;color: rgb(31, 35, 40); font-family: ui-monospace, SFMono-Regular, &amp;quot;SF Mono&amp;quot;, Menlo, Consolas, &amp;quot;Liberation Mono&amp;quot;, monospace; background-color: rgb(255, 255, 255);&quot;&gt;(): boolean&lt;/span&gt;&lt;br&gt;+&amp;nbsp;getJugadorActual&lt;span style=&quot;color: rgb(31, 35, 40); font-family: ui-monospace, SFMono-Regular, &amp;quot;SF Mono&amp;quot;, Menlo, Consolas, &amp;quot;Liberation Mono&amp;quot;, monospace; background-color: rgb(255, 255, 255);&quot;&gt;():&amp;nbsp;&lt;/span&gt;Jugador&lt;br&gt;+&amp;nbsp;getEtapaDeApuestas&lt;span style=&quot;box-sizing: border-box; color: var(--color-prettylights-syntax-entity); display: inline-block; font-family: ui-monospace, SFMono-Regular, &amp;quot;SF Mono&amp;quot;, Menlo, Consolas, &amp;quot;Liberation Mono&amp;quot;, monospace; background-color: rgb(255, 255, 255);&quot; class=&quot;pl-en&quot;&gt;&lt;/span&gt;&lt;span style=&quot;color: rgb(31, 35, 40); font-family: ui-monospace, SFMono-Regular, &amp;quot;SF Mono&amp;quot;, Menlo, Consolas, &amp;quot;Liberation Mono&amp;quot;, monospace; background-color: rgb(255, 255, 255);&quot;&gt;(): &lt;/span&gt;boolean&lt;br&gt;+&amp;nbsp;getEtapaDeDescartes&lt;span style=&quot;color: rgb(31, 35, 40); font-family: ui-monospace, SFMono-Regular, &amp;quot;SF Mono&amp;quot;, Menlo, Consolas, &amp;quot;Liberation Mono&amp;quot;, monospace; background-color: rgb(255, 255, 255);&quot;&gt;(): &lt;/span&gt;boolean&lt;br&gt;+&amp;nbsp;iniciar&lt;span style=&quot;color: rgb(31, 35, 40); font-family: ui-monospace, SFMono-Regular, &amp;quot;SF Mono&amp;quot;, Menlo, Consolas, &amp;quot;Liberation Mono&amp;quot;, monospace; background-color: rgb(255, 255, 255);&quot;&gt;():&amp;nbsp;&lt;/span&gt;void&lt;br&gt;+&amp;nbsp;recepcionDeApuseta&lt;span style=&quot;color: rgb(31, 35, 40); font-family: ui-monospace, SFMono-Regular, &amp;quot;SF Mono&amp;quot;, Menlo, Consolas, &amp;quot;Liberation Mono&amp;quot;, monospace; background-color: rgb(255, 255, 255);&quot;&gt;(&lt;/span&gt;&lt;span style=&quot;box-sizing: border-box; color: var(--color-prettylights-syntax-storage-modifier-import); display: inline-block; font-family: ui-monospace, SFMono-Regular, &amp;quot;SF Mono&amp;quot;, Menlo, Consolas, &amp;quot;Liberation Mono&amp;quot;, monospace; background-color: rgb(255, 255, 255);&quot; class=&quot;pl-smi&quot;&gt;int&lt;/span&gt;&lt;span style=&quot;color: rgb(31, 35, 40); font-family: ui-monospace, SFMono-Regular, &amp;quot;SF Mono&amp;quot;, Menlo, Consolas, &amp;quot;Liberation Mono&amp;quot;, monospace; background-color: rgb(255, 255, 255);&quot;&gt;):&amp;nbsp;&lt;/span&gt;void&lt;br&gt;+&amp;nbsp;recepcionDescarte&lt;span style=&quot;color: rgb(31, 35, 40); font-family: ui-monospace, SFMono-Regular, &amp;quot;SF Mono&amp;quot;, Menlo, Consolas, &amp;quot;Liberation Mono&amp;quot;, monospace; background-color: rgb(255, 255, 255);&quot;&gt;(&lt;/span&gt;&lt;span style=&quot;box-sizing: border-box; color: var(--color-prettylights-syntax-storage-modifier-import); display: inline-block; font-family: ui-monospace, SFMono-Regular, &amp;quot;SF Mono&amp;quot;, Menlo, Consolas, &amp;quot;Liberation Mono&amp;quot;, monospace; background-color: rgb(255, 255, 255);&quot; class=&quot;pl-smi&quot;&gt;int) :&amp;nbsp;&lt;/span&gt;void&lt;br&gt;+&amp;nbsp;ganador&lt;span style=&quot;color: rgb(31, 35, 40); font-family: ui-monospace, SFMono-Regular, &amp;quot;SF Mono&amp;quot;, Menlo, Consolas, &amp;quot;Liberation Mono&amp;quot;, monospace; background-color: rgb(255, 255, 255);&quot;&gt;():&amp;nbsp;&lt;/span&gt;void&lt;br&gt;+&amp;nbsp;empate&lt;span style=&quot;color: rgb(31, 35, 40); font-family: ui-monospace, SFMono-Regular, &amp;quot;SF Mono&amp;quot;, Menlo, Consolas, &amp;quot;Liberation Mono&amp;quot;, monospace; background-color: rgb(255, 255, 255);&quot;&gt;(&lt;/span&gt;&lt;span style=&quot;box-sizing: border-box; color: var(--color-prettylights-syntax-storage-modifier-import); display: inline-block; font-family: ui-monospace, SFMono-Regular, &amp;quot;SF Mono&amp;quot;, Menlo, Consolas, &amp;quot;Liberation Mono&amp;quot;, monospace; background-color: rgb(255, 255, 255);&quot; class=&quot;pl-smi&quot;&gt;ArrayList&lt;/span&gt;&lt;span style=&quot;color: rgb(31, 35, 40); font-family: ui-monospace, SFMono-Regular, &amp;quot;SF Mono&amp;quot;, Menlo, Consolas, &amp;quot;Liberation Mono&amp;quot;, monospace; background-color: rgb(255, 255, 255);&quot;&gt;&amp;lt;&lt;/span&gt;&lt;span style=&quot;box-sizing: border-box; color: var(--color-prettylights-syntax-storage-modifier-import); display: inline-block; font-family: ui-monospace, SFMono-Regular, &amp;quot;SF Mono&amp;quot;, Menlo, Consolas, &amp;quot;Liberation Mono&amp;quot;, monospace; background-color: rgb(255, 255, 255);&quot; class=&quot;pl-smi&quot;&gt;Jugador&lt;/span&gt;&lt;span style=&quot;color: rgb(31, 35, 40); font-family: ui-monospace, SFMono-Regular, &amp;quot;SF Mono&amp;quot;, Menlo, Consolas, &amp;quot;Liberation Mono&amp;quot;, monospace; background-color: rgb(255, 255, 255);&quot;&gt;&amp;gt;):&amp;nbsp;&lt;/span&gt;void&lt;br&gt;+&amp;nbsp;buscarGanador&lt;span style=&quot;color: rgb(31, 35, 40); font-family: ui-monospace, SFMono-Regular, &amp;quot;SF Mono&amp;quot;, Menlo, Consolas, &amp;quot;Liberation Mono&amp;quot;, monospace; background-color: rgb(255, 255, 255);&quot;&gt;(): void&lt;/span&gt;&lt;br&gt;+ siguienteTurno&lt;span style=&quot;color: rgb(31, 35, 40); font-family: ui-monospace, SFMono-Regular, &amp;quot;SF Mono&amp;quot;, Menlo, Consolas, &amp;quot;Liberation Mono&amp;quot;, monospace; background-color: rgb(255, 255, 255);&quot;&gt;(): void&lt;/span&gt;" style="text;strokeColor=none;fillColor=none;align=left;verticalAlign=top;spacingLeft=4;spacingRight=4;overflow=hidden;rotatable=0;points=[[0,0.5],[1,0.5]];portConstraint=eastwest;whiteSpace=wrap;html=1;" parent="jCgJ07AGniD74sEElGV5-0" vertex="1">
          <mxGeometry y="258" width="330" height="242" as="geometry" />
        </mxCell>
        <mxCell id="jCgJ07AGniD74sEElGV5-5" value="«interface»&lt;br&gt;&lt;b&gt;Observado&lt;/b&gt;" style="html=1;whiteSpace=wrap;" parent="WIyWlLk6GJQsqaUBKTNV-1" vertex="1">
          <mxGeometry x="539" y="-870" width="110" height="50" as="geometry" />
        </mxCell>
        <mxCell id="VlVq8zEwPOwb3AWTw42Q-15" style="edgeStyle=orthogonalEdgeStyle;rounded=0;orthogonalLoop=1;jettySize=auto;html=1;exitX=0.5;exitY=0;exitDx=0;exitDy=0;entryX=0.5;entryY=1;entryDx=0;entryDy=0;" edge="1" parent="WIyWlLk6GJQsqaUBKTNV-1" source="jCgJ07AGniD74sEElGV5-6" target="jCgJ07AGniD74sEElGV5-5">
          <mxGeometry relative="1" as="geometry" />
        </mxCell>
        <mxCell id="jCgJ07AGniD74sEElGV5-6" value="Notificador" style="swimlane;fontStyle=1;align=center;verticalAlign=top;childLayout=stackLayout;horizontal=1;startSize=26;horizontalStack=0;resizeParent=1;resizeParentMax=0;resizeLast=0;collapsible=1;marginBottom=0;whiteSpace=wrap;html=1;" parent="WIyWlLk6GJQsqaUBKTNV-1" vertex="1">
          <mxGeometry x="444" y="-760" width="300" height="220" as="geometry" />
        </mxCell>
        <mxCell id="jCgJ07AGniD74sEElGV5-7" value="+&amp;nbsp;mirones:&amp;nbsp;ArrayList&lt;span style=&quot;color: rgb(31, 35, 40); font-family: ui-monospace, SFMono-Regular, &amp;quot;SF Mono&amp;quot;, Menlo, Consolas, &amp;quot;Liberation Mono&amp;quot;, monospace; background-color: rgb(255, 255, 255);&quot;&gt;&amp;lt;&lt;/span&gt;&lt;span style=&quot;box-sizing: border-box; color: var(--color-prettylights-syntax-storage-modifier-import); display: inline-block; font-family: ui-monospace, SFMono-Regular, &amp;quot;SF Mono&amp;quot;, Menlo, Consolas, &amp;quot;Liberation Mono&amp;quot;, monospace; background-color: rgb(255, 255, 255);&quot; class=&quot;pl-smi&quot;&gt;Observer&lt;/span&gt;&lt;span style=&quot;color: rgb(31, 35, 40); font-family: ui-monospace, SFMono-Regular, &amp;quot;SF Mono&amp;quot;, Menlo, Consolas, &amp;quot;Liberation Mono&amp;quot;, monospace; background-color: rgb(255, 255, 255);&quot;&gt;&amp;gt;&lt;/span&gt;&lt;br&gt;+&amp;nbsp;mensaje:&amp;nbsp;StringBuilder&lt;br&gt;" style="text;strokeColor=none;fillColor=none;align=left;verticalAlign=top;spacingLeft=4;spacingRight=4;overflow=hidden;rotatable=0;points=[[0,0.5],[1,0.5]];portConstraint=eastwest;whiteSpace=wrap;html=1;" parent="jCgJ07AGniD74sEElGV5-6" vertex="1">
          <mxGeometry y="26" width="300" height="44" as="geometry" />
        </mxCell>
        <mxCell id="jCgJ07AGniD74sEElGV5-8" value="" style="line;strokeWidth=1;fillColor=none;align=left;verticalAlign=middle;spacingTop=-1;spacingLeft=3;spacingRight=3;rotatable=0;labelPosition=right;points=[];portConstraint=eastwest;strokeColor=inherit;" parent="jCgJ07AGniD74sEElGV5-6" vertex="1">
          <mxGeometry y="70" width="300" height="8" as="geometry" />
        </mxCell>
        <mxCell id="jCgJ07AGniD74sEElGV5-9" value="+&amp;nbsp;notificarApuestaMinimaActual&lt;span style=&quot;color: rgb(31, 35, 40); font-family: ui-monospace, SFMono-Regular, &amp;quot;SF Mono&amp;quot;, Menlo, Consolas, &amp;quot;Liberation Mono&amp;quot;, monospace; background-color: rgb(255, 255, 255);&quot;&gt;(&lt;/span&gt;&lt;span style=&quot;box-sizing: border-box; color: var(--color-prettylights-syntax-storage-modifier-import); display: inline-block; font-family: ui-monospace, SFMono-Regular, &amp;quot;SF Mono&amp;quot;, Menlo, Consolas, &amp;quot;Liberation Mono&amp;quot;, monospace; background-color: rgb(255, 255, 255);&quot; class=&quot;pl-smi&quot;&gt;int&lt;/span&gt;&lt;span style=&quot;color: rgb(31, 35, 40); font-family: ui-monospace, SFMono-Regular, &amp;quot;SF Mono&amp;quot;, Menlo, Consolas, &amp;quot;Liberation Mono&amp;quot;, monospace; background-color: rgb(255, 255, 255);&quot;&gt;): void&lt;/span&gt;&lt;br&gt;+&amp;nbsp;notificarApuestaInicial&lt;span style=&quot;color: rgb(31, 35, 40); font-family: ui-monospace, SFMono-Regular, &amp;quot;SF Mono&amp;quot;, Menlo, Consolas, &amp;quot;Liberation Mono&amp;quot;, monospace; background-color: rgb(255, 255, 255);&quot;&gt;(&lt;/span&gt;&lt;span style=&quot;box-sizing: border-box; color: var(--color-prettylights-syntax-storage-modifier-import); display: inline-block; font-family: ui-monospace, SFMono-Regular, &amp;quot;SF Mono&amp;quot;, Menlo, Consolas, &amp;quot;Liberation Mono&amp;quot;, monospace; background-color: rgb(255, 255, 255);&quot; class=&quot;pl-smi&quot;&gt;int): void&lt;/span&gt;&lt;br&gt;+&amp;nbsp;notificarTotalBote&lt;span style=&quot;color: rgb(31, 35, 40); font-family: ui-monospace, SFMono-Regular, &amp;quot;SF Mono&amp;quot;, Menlo, Consolas, &amp;quot;Liberation Mono&amp;quot;, monospace; background-color: rgb(255, 255, 255);&quot;&gt;(&lt;/span&gt;&lt;span style=&quot;box-sizing: border-box; color: var(--color-prettylights-syntax-storage-modifier-import); display: inline-block; font-family: ui-monospace, SFMono-Regular, &amp;quot;SF Mono&amp;quot;, Menlo, Consolas, &amp;quot;Liberation Mono&amp;quot;, monospace; background-color: rgb(255, 255, 255);&quot; class=&quot;pl-smi&quot;&gt;int): void&lt;/span&gt;&lt;br&gt;+&amp;nbsp;notificarTurnoActual&lt;span style=&quot;color: rgb(31, 35, 40); font-family: ui-monospace, SFMono-Regular, &amp;quot;SF Mono&amp;quot;, Menlo, Consolas, &amp;quot;Liberation Mono&amp;quot;, monospace; background-color: rgb(255, 255, 255);&quot;&gt;(&lt;/span&gt;&lt;span style=&quot;box-sizing: border-box; color: var(--color-prettylights-syntax-storage-modifier-import); display: inline-block; font-family: ui-monospace, SFMono-Regular, &amp;quot;SF Mono&amp;quot;, Menlo, Consolas, &amp;quot;Liberation Mono&amp;quot;, monospace; background-color: rgb(255, 255, 255);&quot; class=&quot;pl-smi&quot;&gt;String)&lt;/span&gt;&lt;br&gt;+ notificarJugadores&lt;span style=&quot;color: rgb(31, 35, 40); font-family: ui-monospace, SFMono-Regular, &amp;quot;SF Mono&amp;quot;, Menlo, Consolas, &amp;quot;Liberation Mono&amp;quot;, monospace; background-color: rgb(255, 255, 255);&quot;&gt;(&lt;/span&gt;&lt;span style=&quot;box-sizing: border-box; color: var(--color-prettylights-syntax-storage-modifier-import); display: inline-block; font-family: ui-monospace, SFMono-Regular, &amp;quot;SF Mono&amp;quot;, Menlo, Consolas, &amp;quot;Liberation Mono&amp;quot;, monospace; background-color: rgb(255, 255, 255);&quot; class=&quot;pl-smi&quot;&gt;ArrayList&lt;/span&gt;&lt;span style=&quot;color: rgb(31, 35, 40); font-family: ui-monospace, SFMono-Regular, &amp;quot;SF Mono&amp;quot;, Menlo, Consolas, &amp;quot;Liberation Mono&amp;quot;, monospace; background-color: rgb(255, 255, 255);&quot;&gt;&amp;lt;&lt;/span&gt;&lt;span style=&quot;box-sizing: border-box; color: var(--color-prettylights-syntax-storage-modifier-import); display: inline-block; font-family: ui-monospace, SFMono-Regular, &amp;quot;SF Mono&amp;quot;, Menlo, Consolas, &amp;quot;Liberation Mono&amp;quot;, monospace; background-color: rgb(255, 255, 255);&quot; class=&quot;pl-smi&quot;&gt;String&lt;/span&gt;&lt;span style=&quot;color: rgb(31, 35, 40); font-family: ui-monospace, SFMono-Regular, &amp;quot;SF Mono&amp;quot;, Menlo, Consolas, &amp;quot;Liberation Mono&amp;quot;, monospace; background-color: rgb(255, 255, 255);&quot;&gt;&amp;gt;): void&lt;/span&gt;&lt;br&gt;+&amp;nbsp;agregarMiron&lt;span style=&quot;color: rgb(31, 35, 40); font-family: ui-monospace, SFMono-Regular, &amp;quot;SF Mono&amp;quot;, Menlo, Consolas, &amp;quot;Liberation Mono&amp;quot;, monospace; background-color: rgb(255, 255, 255);&quot;&gt;(&lt;/span&gt;&lt;span style=&quot;box-sizing: border-box; color: var(--color-prettylights-syntax-storage-modifier-import); display: inline-block; font-family: ui-monospace, SFMono-Regular, &amp;quot;SF Mono&amp;quot;, Menlo, Consolas, &amp;quot;Liberation Mono&amp;quot;, monospace; background-color: rgb(255, 255, 255);&quot; class=&quot;pl-smi&quot;&gt;Observer): void&lt;/span&gt;&lt;br&gt;+ eliminarMiron&lt;span style=&quot;color: rgb(31, 35, 40); font-family: ui-monospace, SFMono-Regular, &amp;quot;SF Mono&amp;quot;, Menlo, Consolas, &amp;quot;Liberation Mono&amp;quot;, monospace; background-color: rgb(255, 255, 255);&quot;&gt;(&lt;/span&gt;&lt;span style=&quot;box-sizing: border-box; color: var(--color-prettylights-syntax-storage-modifier-import); display: inline-block; font-family: ui-monospace, SFMono-Regular, &amp;quot;SF Mono&amp;quot;, Menlo, Consolas, &amp;quot;Liberation Mono&amp;quot;, monospace; background-color: rgb(255, 255, 255);&quot; class=&quot;pl-smi&quot;&gt;Observer): void&lt;/span&gt;&lt;br&gt;+ getState&lt;span style=&quot;color: rgb(31, 35, 40); font-family: ui-monospace, SFMono-Regular, &amp;quot;SF Mono&amp;quot;, Menlo, Consolas, &amp;quot;Liberation Mono&amp;quot;, monospace; background-color: rgb(255, 255, 255);&quot;&gt;():&amp;nbsp;&lt;/span&gt;String&lt;br&gt;+&amp;nbsp;notificarEtapa&lt;span style=&quot;color: rgb(31, 35, 40); font-family: ui-monospace, SFMono-Regular, &amp;quot;SF Mono&amp;quot;, Menlo, Consolas, &amp;quot;Liberation Mono&amp;quot;, monospace; background-color: rgb(255, 255, 255);&quot;&gt;(&lt;/span&gt;&lt;span style=&quot;box-sizing: border-box; color: var(--color-prettylights-syntax-storage-modifier-import); display: inline-block; font-family: ui-monospace, SFMono-Regular, &amp;quot;SF Mono&amp;quot;, Menlo, Consolas, &amp;quot;Liberation Mono&amp;quot;, monospace; background-color: rgb(255, 255, 255);&quot; class=&quot;pl-smi&quot;&gt;boolean): void&lt;br&gt;&lt;/span&gt;" style="text;strokeColor=none;fillColor=none;align=left;verticalAlign=top;spacingLeft=4;spacingRight=4;overflow=hidden;rotatable=0;points=[[0,0.5],[1,0.5]];portConstraint=eastwest;whiteSpace=wrap;html=1;" parent="jCgJ07AGniD74sEElGV5-6" vertex="1">
          <mxGeometry y="78" width="300" height="142" as="geometry" />
        </mxCell>
        <mxCell id="VlVq8zEwPOwb3AWTw42Q-18" style="edgeStyle=orthogonalEdgeStyle;rounded=0;orthogonalLoop=1;jettySize=auto;html=1;exitX=0.5;exitY=0;exitDx=0;exitDy=0;entryX=0.5;entryY=1;entryDx=0;entryDy=0;" edge="1" parent="WIyWlLk6GJQsqaUBKTNV-1" source="jCgJ07AGniD74sEElGV5-10" target="jCgJ07AGniD74sEElGV5-15">
          <mxGeometry relative="1" as="geometry" />
        </mxCell>
        <mxCell id="jCgJ07AGniD74sEElGV5-10" value="Jugador" style="swimlane;fontStyle=1;align=center;verticalAlign=top;childLayout=stackLayout;horizontal=1;startSize=26;horizontalStack=0;resizeParent=1;resizeParentMax=0;resizeLast=0;collapsible=1;marginBottom=0;whiteSpace=wrap;html=1;" parent="WIyWlLk6GJQsqaUBKTNV-1" vertex="1">
          <mxGeometry x="-186" y="-532" width="380" height="600" as="geometry" />
        </mxCell>
        <mxCell id="jCgJ07AGniD74sEElGV5-11" value="+ notificador: Notificador&lt;br&gt;+&amp;nbsp;mironDeCartas:&amp;nbsp;ArrayList&lt;span style=&quot;box-sizing: border-box; color: var(--color-prettylights-syntax-storage-modifier-import); display: inline-block; font-family: ui-monospace, SFMono-Regular, &amp;quot;SF Mono&amp;quot;, Menlo, Consolas, &amp;quot;Liberation Mono&amp;quot;, monospace; background-color: rgb(255, 255, 255);&quot; class=&quot;pl-smi&quot;&gt;VerCartas&lt;/span&gt;&lt;span style=&quot;color: rgb(31, 35, 40); font-family: ui-monospace, SFMono-Regular, &amp;quot;SF Mono&amp;quot;, Menlo, Consolas, &amp;quot;Liberation Mono&amp;quot;, monospace; background-color: rgb(255, 255, 255);&quot;&gt;&amp;gt;&lt;/span&gt;&lt;br&gt;+&amp;nbsp;nombre:&amp;nbsp;String&lt;br&gt;+&amp;nbsp;puntosJugada:&amp;nbsp;int&lt;br&gt;+&amp;nbsp;jugada:&amp;nbsp;Juegos&lt;br&gt;+&amp;nbsp;cartas:&amp;nbsp;ArrayList&lt;span style=&quot;color: rgb(31, 35, 40); font-family: ui-monospace, SFMono-Regular, &amp;quot;SF Mono&amp;quot;, Menlo, Consolas, &amp;quot;Liberation Mono&amp;quot;, monospace; background-color: rgb(255, 255, 255);&quot;&gt;&amp;lt;&lt;/span&gt;&lt;span style=&quot;box-sizing: border-box; color: var(--color-prettylights-syntax-storage-modifier-import); display: inline-block; font-family: ui-monospace, SFMono-Regular, &amp;quot;SF Mono&amp;quot;, Menlo, Consolas, &amp;quot;Liberation Mono&amp;quot;, monospace; background-color: rgb(255, 255, 255);&quot; class=&quot;pl-smi&quot;&gt;Carta&lt;/span&gt;&lt;span style=&quot;color: rgb(31, 35, 40); font-family: ui-monospace, SFMono-Regular, &amp;quot;SF Mono&amp;quot;, Menlo, Consolas, &amp;quot;Liberation Mono&amp;quot;, monospace; background-color: rgb(255, 255, 255);&quot;&gt;&amp;gt;&lt;/span&gt;&lt;br&gt;+&amp;nbsp;fichas: int&lt;br&gt;+&amp;nbsp;fichasInicioRonda: int&lt;br&gt;+&amp;nbsp;totalApostado: int&amp;nbsp;&lt;br&gt;+&amp;nbsp;montoGanable: int&lt;br&gt;+&amp;nbsp;rondaActual:&amp;nbsp;Ronda" style="text;strokeColor=none;fillColor=none;align=left;verticalAlign=top;spacingLeft=4;spacingRight=4;overflow=hidden;rotatable=0;points=[[0,0.5],[1,0.5]];portConstraint=eastwest;whiteSpace=wrap;html=1;" parent="jCgJ07AGniD74sEElGV5-10" vertex="1">
          <mxGeometry y="26" width="380" height="184" as="geometry" />
        </mxCell>
        <mxCell id="jCgJ07AGniD74sEElGV5-12" value="" style="line;strokeWidth=1;fillColor=none;align=left;verticalAlign=middle;spacingTop=-1;spacingLeft=3;spacingRight=3;rotatable=0;labelPosition=right;points=[];portConstraint=eastwest;strokeColor=inherit;" parent="jCgJ07AGniD74sEElGV5-10" vertex="1">
          <mxGeometry y="210" width="380" height="8" as="geometry" />
        </mxCell>
        <mxCell id="jCgJ07AGniD74sEElGV5-13" value="+&amp;nbsp;agregarMiron&lt;span style=&quot;color: rgb(31, 35, 40); font-family: ui-monospace, SFMono-Regular, &amp;quot;SF Mono&amp;quot;, Menlo, Consolas, &amp;quot;Liberation Mono&amp;quot;, monospace; background-color: rgb(255, 255, 255);&quot;&gt;(&lt;/span&gt;&lt;span style=&quot;box-sizing: border-box; color: var(--color-prettylights-syntax-storage-modifier-import); display: inline-block; font-family: ui-monospace, SFMono-Regular, &amp;quot;SF Mono&amp;quot;, Menlo, Consolas, &amp;quot;Liberation Mono&amp;quot;, monospace; background-color: rgb(255, 255, 255);&quot; class=&quot;pl-smi&quot;&gt;Observer): void&lt;/span&gt;&lt;br&gt;+&amp;nbsp;mostrarGanador&lt;span style=&quot;color: rgb(31, 35, 40); font-family: ui-monospace, SFMono-Regular, &amp;quot;SF Mono&amp;quot;, Menlo, Consolas, &amp;quot;Liberation Mono&amp;quot;, monospace; background-color: rgb(255, 255, 255);&quot;&gt;(&lt;/span&gt;&lt;span style=&quot;box-sizing: border-box; color: var(--color-prettylights-syntax-storage-modifier-import); display: inline-block; font-family: ui-monospace, SFMono-Regular, &amp;quot;SF Mono&amp;quot;, Menlo, Consolas, &amp;quot;Liberation Mono&amp;quot;, monospace; background-color: rgb(255, 255, 255);&quot; class=&quot;pl-smi&quot;&gt;ArrayList&lt;/span&gt;&lt;span style=&quot;color: rgb(31, 35, 40); font-family: ui-monospace, SFMono-Regular, &amp;quot;SF Mono&amp;quot;, Menlo, Consolas, &amp;quot;Liberation Mono&amp;quot;, monospace; background-color: rgb(255, 255, 255);&quot;&gt;&amp;lt;&lt;/span&gt;&lt;span style=&quot;box-sizing: border-box; color: var(--color-prettylights-syntax-storage-modifier-import); display: inline-block; font-family: ui-monospace, SFMono-Regular, &amp;quot;SF Mono&amp;quot;, Menlo, Consolas, &amp;quot;Liberation Mono&amp;quot;, monospace; background-color: rgb(255, 255, 255);&quot; class=&quot;pl-smi&quot;&gt;Jugador&lt;/span&gt;&lt;span style=&quot;color: rgb(31, 35, 40); font-family: ui-monospace, SFMono-Regular, &amp;quot;SF Mono&amp;quot;, Menlo, Consolas, &amp;quot;Liberation Mono&amp;quot;, monospace; background-color: rgb(255, 255, 255);&quot;&gt;&amp;gt;): void&lt;/span&gt;&lt;br&gt;+&amp;nbsp;setNotificador&lt;span style=&quot;color: rgb(31, 35, 40); font-family: ui-monospace, SFMono-Regular, &amp;quot;SF Mono&amp;quot;, Menlo, Consolas, &amp;quot;Liberation Mono&amp;quot;, monospace; background-color: rgb(255, 255, 255);&quot;&gt;(&lt;/span&gt;&lt;span style=&quot;box-sizing: border-box; color: var(--color-prettylights-syntax-storage-modifier-import); display: inline-block; font-family: ui-monospace, SFMono-Regular, &amp;quot;SF Mono&amp;quot;, Menlo, Consolas, &amp;quot;Liberation Mono&amp;quot;, monospace; background-color: rgb(255, 255, 255);&quot; class=&quot;pl-smi&quot;&gt;Notificador): void&lt;/span&gt;&lt;br&gt;+&amp;nbsp;agregarMiron&lt;span style=&quot;color: rgb(31, 35, 40); font-family: ui-monospace, SFMono-Regular, &amp;quot;SF Mono&amp;quot;, Menlo, Consolas, &amp;quot;Liberation Mono&amp;quot;, monospace; background-color: rgb(255, 255, 255);&quot;&gt;(&lt;/span&gt;&lt;span style=&quot;box-sizing: border-box; color: var(--color-prettylights-syntax-storage-modifier-import); display: inline-block; font-family: ui-monospace, SFMono-Regular, &amp;quot;SF Mono&amp;quot;, Menlo, Consolas, &amp;quot;Liberation Mono&amp;quot;, monospace; background-color: rgb(255, 255, 255);&quot; class=&quot;pl-smi&quot;&gt;VerCartas): void&lt;/span&gt;&lt;br&gt;+&amp;nbsp;notificarCartas&lt;span style=&quot;color: rgb(31, 35, 40); font-family: ui-monospace, SFMono-Regular, &amp;quot;SF Mono&amp;quot;, Menlo, Consolas, &amp;quot;Liberation Mono&amp;quot;, monospace; background-color: rgb(255, 255, 255);&quot;&gt;(&lt;/span&gt;&lt;span style=&quot;box-sizing: border-box; color: var(--color-prettylights-syntax-storage-modifier-import); display: inline-block; font-family: ui-monospace, SFMono-Regular, &amp;quot;SF Mono&amp;quot;, Menlo, Consolas, &amp;quot;Liberation Mono&amp;quot;, monospace; background-color: rgb(255, 255, 255);&quot; class=&quot;pl-smi&quot;&gt;ArrayList&lt;/span&gt;&lt;span style=&quot;color: rgb(31, 35, 40); font-family: ui-monospace, SFMono-Regular, &amp;quot;SF Mono&amp;quot;, Menlo, Consolas, &amp;quot;Liberation Mono&amp;quot;, monospace; background-color: rgb(255, 255, 255);&quot;&gt;&amp;lt;&lt;/span&gt;&lt;span style=&quot;box-sizing: border-box; color: var(--color-prettylights-syntax-storage-modifier-import); display: inline-block; font-family: ui-monospace, SFMono-Regular, &amp;quot;SF Mono&amp;quot;, Menlo, Consolas, &amp;quot;Liberation Mono&amp;quot;, monospace; background-color: rgb(255, 255, 255);&quot; class=&quot;pl-smi&quot;&gt;String&lt;/span&gt;&lt;span style=&quot;color: rgb(31, 35, 40); font-family: ui-monospace, SFMono-Regular, &amp;quot;SF Mono&amp;quot;, Menlo, Consolas, &amp;quot;Liberation Mono&amp;quot;, monospace; background-color: rgb(255, 255, 255);&quot;&gt;&amp;gt;): void&lt;/span&gt;&lt;br&gt;+&amp;nbsp;notificarJugada&lt;span style=&quot;color: rgb(31, 35, 40); font-family: ui-monospace, SFMono-Regular, &amp;quot;SF Mono&amp;quot;, Menlo, Consolas, &amp;quot;Liberation Mono&amp;quot;, monospace; background-color: rgb(255, 255, 255);&quot;&gt;(): void&lt;/span&gt;&lt;br&gt;+&amp;nbsp;getState&lt;span style=&quot;color: rgb(31, 35, 40); font-family: ui-monospace, SFMono-Regular, &amp;quot;SF Mono&amp;quot;, Menlo, Consolas, &amp;quot;Liberation Mono&amp;quot;, monospace; background-color: rgb(255, 255, 255);&quot;&gt;(): String&lt;/span&gt;&lt;br&gt;+&amp;nbsp;getMontoGanable&lt;span style=&quot;color: rgb(31, 35, 40); font-family: ui-monospace, SFMono-Regular, &amp;quot;SF Mono&amp;quot;, Menlo, Consolas, &amp;quot;Liberation Mono&amp;quot;, monospace; background-color: rgb(255, 255, 255);&quot;&gt;(): int&lt;/span&gt;&lt;br&gt;+&amp;nbsp;getNombre&lt;span style=&quot;color: rgb(31, 35, 40); font-family: ui-monospace, SFMono-Regular, &amp;quot;SF Mono&amp;quot;, Menlo, Consolas, &amp;quot;Liberation Mono&amp;quot;, monospace; background-color: rgb(255, 255, 255);&quot;&gt;():&amp;nbsp;&lt;/span&gt;String&lt;br&gt;+&amp;nbsp;setRondaActual&lt;span style=&quot;color: rgb(31, 35, 40); font-family: ui-monospace, SFMono-Regular, &amp;quot;SF Mono&amp;quot;, Menlo, Consolas, &amp;quot;Liberation Mono&amp;quot;, monospace; background-color: rgb(255, 255, 255);&quot;&gt;(&lt;/span&gt;&lt;span style=&quot;box-sizing: border-box; color: var(--color-prettylights-syntax-storage-modifier-import); display: inline-block; font-family: ui-monospace, SFMono-Regular, &amp;quot;SF Mono&amp;quot;, Menlo, Consolas, &amp;quot;Liberation Mono&amp;quot;, monospace; background-color: rgb(255, 255, 255);&quot; class=&quot;pl-smi&quot;&gt;Ronda) void&lt;/span&gt;&lt;br&gt;+&amp;nbsp;getTotalApostado&lt;span style=&quot;color: rgb(31, 35, 40); font-family: ui-monospace, SFMono-Regular, &amp;quot;SF Mono&amp;quot;, Menlo, Consolas, &amp;quot;Liberation Mono&amp;quot;, monospace; background-color: rgb(255, 255, 255);&quot;&gt;(): int&lt;/span&gt;&lt;br&gt;+ &lt;span style=&quot;box-sizing: border-box; color: var(--color-prettylights-syntax-entity); display: inline-block; font-family: ui-monospace, SFMono-Regular, &amp;quot;SF Mono&amp;quot;, Menlo, Consolas, &amp;quot;Liberation Mono&amp;quot;, monospace; background-color: rgb(255, 255, 255);&quot; class=&quot;pl-en&quot;&gt;mostrarImagenesDeCartas&lt;/span&gt;&lt;span style=&quot;color: rgb(31, 35, 40); font-family: ui-monospace, SFMono-Regular, &amp;quot;SF Mono&amp;quot;, Menlo, Consolas, &amp;quot;Liberation Mono&amp;quot;, monospace; background-color: rgb(255, 255, 255);&quot;&gt;():&lt;/span&gt; &lt;span style=&quot;box-sizing: border-box; color: var(--color-prettylights-syntax-storage-modifier-import); display: inline-block; font-family: ui-monospace, SFMono-Regular, &amp;quot;SF Mono&amp;quot;, Menlo, Consolas, &amp;quot;Liberation Mono&amp;quot;, monospace; background-color: rgb(255, 255, 255);&quot; class=&quot;pl-smi&quot;&gt;ArrayList&lt;/span&gt;&lt;span style=&quot;color: rgb(31, 35, 40); font-family: ui-monospace, SFMono-Regular, &amp;quot;SF Mono&amp;quot;, Menlo, Consolas, &amp;quot;Liberation Mono&amp;quot;, monospace; background-color: rgb(255, 255, 255);&quot;&gt;&amp;lt;&lt;/span&gt;&lt;span style=&quot;box-sizing: border-box; color: var(--color-prettylights-syntax-storage-modifier-import); display: inline-block; font-family: ui-monospace, SFMono-Regular, &amp;quot;SF Mono&amp;quot;, Menlo, Consolas, &amp;quot;Liberation Mono&amp;quot;, monospace; background-color: rgb(255, 255, 255);&quot; class=&quot;pl-smi&quot;&gt;String&lt;/span&gt;&lt;span style=&quot;color: rgb(31, 35, 40); font-family: ui-monospace, SFMono-Regular, &amp;quot;SF Mono&amp;quot;, Menlo, Consolas, &amp;quot;Liberation Mono&amp;quot;, monospace; background-color: rgb(255, 255, 255);&quot;&gt;&amp;gt;&lt;/span&gt;&lt;br&gt;+&amp;nbsp;verCartas&lt;span style=&quot;color: rgb(31, 35, 40); font-family: ui-monospace, SFMono-Regular, &amp;quot;SF Mono&amp;quot;, Menlo, Consolas, &amp;quot;Liberation Mono&amp;quot;, monospace; background-color: rgb(255, 255, 255);&quot;&gt;(): void&lt;br&gt;&lt;/span&gt;+&amp;nbsp;recibirCartas&lt;span style=&quot;color: rgb(31, 35, 40); font-family: ui-monospace, SFMono-Regular, &amp;quot;SF Mono&amp;quot;, Menlo, Consolas, &amp;quot;Liberation Mono&amp;quot;, monospace; background-color: rgb(255, 255, 255);&quot;&gt;(&lt;/span&gt;&lt;span style=&quot;box-sizing: border-box; color: var(--color-prettylights-syntax-storage-modifier-import); display: inline-block; font-family: ui-monospace, SFMono-Regular, &amp;quot;SF Mono&amp;quot;, Menlo, Consolas, &amp;quot;Liberation Mono&amp;quot;, monospace; background-color: rgb(255, 255, 255);&quot; class=&quot;pl-smi&quot;&gt;ArrayList&lt;/span&gt;&lt;span style=&quot;color: rgb(31, 35, 40); font-family: ui-monospace, SFMono-Regular, &amp;quot;SF Mono&amp;quot;, Menlo, Consolas, &amp;quot;Liberation Mono&amp;quot;, monospace; background-color: rgb(255, 255, 255);&quot;&gt;&amp;lt;&lt;/span&gt;&lt;span style=&quot;box-sizing: border-box; color: var(--color-prettylights-syntax-storage-modifier-import); display: inline-block; font-family: ui-monospace, SFMono-Regular, &amp;quot;SF Mono&amp;quot;, Menlo, Consolas, &amp;quot;Liberation Mono&amp;quot;, monospace; background-color: rgb(255, 255, 255);&quot; class=&quot;pl-smi&quot;&gt;Carta&lt;/span&gt;&lt;span style=&quot;color: rgb(31, 35, 40); font-family: ui-monospace, SFMono-Regular, &amp;quot;SF Mono&amp;quot;, Menlo, Consolas, &amp;quot;Liberation Mono&amp;quot;, monospace; background-color: rgb(255, 255, 255);&quot;&gt;&amp;gt;): void&lt;/span&gt;&lt;br&gt;+&amp;nbsp;descartar&lt;span style=&quot;color: rgb(31, 35, 40); font-family: ui-monospace, SFMono-Regular, &amp;quot;SF Mono&amp;quot;, Menlo, Consolas, &amp;quot;Liberation Mono&amp;quot;, monospace; background-color: rgb(255, 255, 255);&quot;&gt;(&lt;/span&gt;&lt;span style=&quot;box-sizing: border-box; color: var(--color-prettylights-syntax-storage-modifier-import); display: inline-block; font-family: ui-monospace, SFMono-Regular, &amp;quot;SF Mono&amp;quot;, Menlo, Consolas, &amp;quot;Liberation Mono&amp;quot;, monospace; background-color: rgb(255, 255, 255);&quot; class=&quot;pl-smi&quot;&gt;ArrayList&lt;/span&gt;&lt;span style=&quot;color: rgb(31, 35, 40); font-family: ui-monospace, SFMono-Regular, &amp;quot;SF Mono&amp;quot;, Menlo, Consolas, &amp;quot;Liberation Mono&amp;quot;, monospace; background-color: rgb(255, 255, 255);&quot;&gt;&amp;lt;&lt;/span&gt;&lt;span style=&quot;box-sizing: border-box; color: var(--color-prettylights-syntax-storage-modifier-import); display: inline-block; font-family: ui-monospace, SFMono-Regular, &amp;quot;SF Mono&amp;quot;, Menlo, Consolas, &amp;quot;Liberation Mono&amp;quot;, monospace; background-color: rgb(255, 255, 255);&quot; class=&quot;pl-smi&quot;&gt;Integer&lt;/span&gt;&lt;span style=&quot;color: rgb(31, 35, 40); font-family: ui-monospace, SFMono-Regular, &amp;quot;SF Mono&amp;quot;, Menlo, Consolas, &amp;quot;Liberation Mono&amp;quot;, monospace; background-color: rgb(255, 255, 255);&quot;&gt;&amp;gt;): void&lt;/span&gt;&lt;br&gt;+&amp;nbsp;apostar&lt;span style=&quot;color: rgb(31, 35, 40); font-family: ui-monospace, SFMono-Regular, &amp;quot;SF Mono&amp;quot;, Menlo, Consolas, &amp;quot;Liberation Mono&amp;quot;, monospace; background-color: rgb(255, 255, 255);&quot;&gt;(&lt;/span&gt;&lt;span style=&quot;box-sizing: border-box; color: var(--color-prettylights-syntax-storage-modifier-import); display: inline-block; font-family: ui-monospace, SFMono-Regular, &amp;quot;SF Mono&amp;quot;, Menlo, Consolas, &amp;quot;Liberation Mono&amp;quot;, monospace; background-color: rgb(255, 255, 255);&quot; class=&quot;pl-smi&quot;&gt;int): void&lt;/span&gt;&lt;br&gt;+&amp;nbsp;getNotificador&lt;span style=&quot;color: rgb(31, 35, 40); font-family: ui-monospace, SFMono-Regular, &amp;quot;SF Mono&amp;quot;, Menlo, Consolas, &amp;quot;Liberation Mono&amp;quot;, monospace; background-color: rgb(255, 255, 255);&quot;&gt;(): Notificador&lt;/span&gt;&lt;br&gt;+&amp;nbsp;apuestaMinima&lt;span style=&quot;color: rgb(31, 35, 40); font-family: ui-monospace, SFMono-Regular, &amp;quot;SF Mono&amp;quot;, Menlo, Consolas, &amp;quot;Liberation Mono&amp;quot;, monospace; background-color: rgb(255, 255, 255);&quot;&gt;(&lt;/span&gt;&lt;span style=&quot;box-sizing: border-box; color: var(--color-prettylights-syntax-storage-modifier-import); display: inline-block; font-family: ui-monospace, SFMono-Regular, &amp;quot;SF Mono&amp;quot;, Menlo, Consolas, &amp;quot;Liberation Mono&amp;quot;, monospace; background-color: rgb(255, 255, 255);&quot; class=&quot;pl-smi&quot;&gt;int): Boolean&lt;/span&gt;&lt;br&gt;+&amp;nbsp;verFichas&lt;span style=&quot;color: rgb(31, 35, 40); font-family: ui-monospace, SFMono-Regular, &amp;quot;SF Mono&amp;quot;, Menlo, Consolas, &amp;quot;Liberation Mono&amp;quot;, monospace; background-color: rgb(255, 255, 255);&quot;&gt;(): int&lt;/span&gt;&lt;br&gt;+ recibirFichas&lt;span style=&quot;color: rgb(31, 35, 40); font-family: ui-monospace, SFMono-Regular, &amp;quot;SF Mono&amp;quot;, Menlo, Consolas, &amp;quot;Liberation Mono&amp;quot;, monospace; background-color: rgb(255, 255, 255);&quot;&gt;(&lt;/span&gt;&lt;span style=&quot;box-sizing: border-box; color: var(--color-prettylights-syntax-storage-modifier-import); display: inline-block; font-family: ui-monospace, SFMono-Regular, &amp;quot;SF Mono&amp;quot;, Menlo, Consolas, &amp;quot;Liberation Mono&amp;quot;, monospace; background-color: rgb(255, 255, 255);&quot; class=&quot;pl-smi&quot;&gt;int): void&lt;/span&gt;&lt;br&gt;+ &lt;span style=&quot;box-sizing: border-box; color: var(--color-prettylights-syntax-entity); display: inline-block; font-family: ui-monospace, SFMono-Regular, &amp;quot;SF Mono&amp;quot;, Menlo, Consolas, &amp;quot;Liberation Mono&amp;quot;, monospace; background-color: rgb(255, 255, 255);&quot; class=&quot;pl-en&quot;&gt;mejorQue&lt;/span&gt;&lt;span style=&quot;color: rgb(31, 35, 40); font-family: ui-monospace, SFMono-Regular, &amp;quot;SF Mono&amp;quot;, Menlo, Consolas, &amp;quot;Liberation Mono&amp;quot;, monospace; background-color: rgb(255, 255, 255);&quot;&gt;(&lt;/span&gt;&lt;span style=&quot;box-sizing: border-box; color: var(--color-prettylights-syntax-storage-modifier-import); display: inline-block; font-family: ui-monospace, SFMono-Regular, &amp;quot;SF Mono&amp;quot;, Menlo, Consolas, &amp;quot;Liberation Mono&amp;quot;, monospace; background-color: rgb(255, 255, 255);&quot; class=&quot;pl-smi&quot;&gt;Jugador): int&lt;/span&gt;&lt;br&gt;+&amp;nbsp;buscarJugada&lt;span style=&quot;color: rgb(31, 35, 40); font-family: ui-monospace, SFMono-Regular, &amp;quot;SF Mono&amp;quot;, Menlo, Consolas, &amp;quot;Liberation Mono&amp;quot;, monospace; background-color: rgb(255, 255, 255);&quot;&gt;(): void&lt;/span&gt;&lt;br&gt;+&amp;nbsp;buscarIguales&lt;span style=&quot;color: rgb(31, 35, 40); font-family: ui-monospace, SFMono-Regular, &amp;quot;SF Mono&amp;quot;, Menlo, Consolas, &amp;quot;Liberation Mono&amp;quot;, monospace; background-color: rgb(255, 255, 255);&quot;&gt;():void&lt;/span&gt;&lt;br&gt;+&amp;nbsp;color&lt;span style=&quot;color: rgb(31, 35, 40); font-family: ui-monospace, SFMono-Regular, &amp;quot;SF Mono&amp;quot;, Menlo, Consolas, &amp;quot;Liberation Mono&amp;quot;, monospace; background-color: rgb(255, 255, 255);&quot;&gt;():boolean&lt;/span&gt;&lt;br&gt;+&amp;nbsp;escalera&lt;span style=&quot;color: rgb(31, 35, 40); font-family: ui-monospace, SFMono-Regular, &amp;quot;SF Mono&amp;quot;, Menlo, Consolas, &amp;quot;Liberation Mono&amp;quot;, monospace; background-color: rgb(255, 255, 255);&quot;&gt;(): Integer&lt;/span&gt;&lt;br&gt;+&amp;nbsp;limpiar&lt;span style=&quot;color: rgb(31, 35, 40); font-family: ui-monospace, SFMono-Regular, &amp;quot;SF Mono&amp;quot;, Menlo, Consolas, &amp;quot;Liberation Mono&amp;quot;, monospace; background-color: rgb(255, 255, 255);&quot;&gt;(): void&lt;/span&gt;" style="text;strokeColor=none;fillColor=none;align=left;verticalAlign=top;spacingLeft=4;spacingRight=4;overflow=hidden;rotatable=0;points=[[0,0.5],[1,0.5]];portConstraint=eastwest;whiteSpace=wrap;html=1;" parent="jCgJ07AGniD74sEElGV5-10" vertex="1">
          <mxGeometry y="218" width="380" height="382" as="geometry" />
        </mxCell>
        <mxCell id="jCgJ07AGniD74sEElGV5-15" value="«interface»&lt;br&gt;DejarVerCartas" style="html=1;whiteSpace=wrap;" parent="WIyWlLk6GJQsqaUBKTNV-1" vertex="1">
          <mxGeometry x="-51" y="-672" width="110" height="50" as="geometry" />
        </mxCell>
        <mxCell id="VlVq8zEwPOwb3AWTw42Q-23" style="edgeStyle=orthogonalEdgeStyle;rounded=0;orthogonalLoop=1;jettySize=auto;html=1;exitX=0.5;exitY=0;exitDx=0;exitDy=0;" edge="1" parent="WIyWlLk6GJQsqaUBKTNV-1" source="jCgJ07AGniD74sEElGV5-16">
          <mxGeometry relative="1" as="geometry">
            <mxPoint x="10" y="90" as="targetPoint" />
          </mxGeometry>
        </mxCell>
        <mxCell id="jCgJ07AGniD74sEElGV5-16" value="Enum: Juego" style="swimlane;fontStyle=0;childLayout=stackLayout;horizontal=1;startSize=26;fillColor=none;horizontalStack=0;resizeParent=1;resizeParentMax=0;resizeLast=0;collapsible=1;marginBottom=0;whiteSpace=wrap;html=1;" parent="WIyWlLk6GJQsqaUBKTNV-1" vertex="1">
          <mxGeometry x="-66" y="174" width="140" height="240" as="geometry" />
        </mxCell>
        <mxCell id="jCgJ07AGniD74sEElGV5-17" value="&lt;div style=&quot;box-sizing: border-box; position: relative; display: flex; width: 652.465px; padding-right: 10px; padding-left: 10px; overflow: visible; color: rgb(31, 35, 40); vertical-align: middle; scroll-margin-top: 20vh; font-family: ui-monospace, SFMono-Regular, &amp;quot;SF Mono&amp;quot;, Menlo, Consolas, &amp;quot;Liberation Mono&amp;quot;, monospace; line-height: 20px; overflow-wrap: normal; background-color: rgb(255, 255, 255); min-height: auto;&quot; class=&quot;react-code-text react-code-line-contents&quot;&gt;&lt;div style=&quot;box-sizing: border-box;&quot;&gt;&lt;div style=&quot;box-sizing: border-box; padding-left: 10px; position: relative;&quot; data-line-number=&quot;67&quot; data-testid=&quot;code-cell&quot; class=&quot;react-file-line html-div&quot; id=&quot;LC67-narrow&quot;&gt;CARTAMAYOR,&lt;/div&gt;&lt;/div&gt;&lt;/div&gt;&lt;div style=&quot;box-sizing: border-box; position: relative; display: flex; width: 652.465px; padding-right: 10px; padding-left: 10px; overflow: visible; color: rgb(31, 35, 40); vertical-align: middle; scroll-margin-top: 20vh; font-family: ui-monospace, SFMono-Regular, &amp;quot;SF Mono&amp;quot;, Menlo, Consolas, &amp;quot;Liberation Mono&amp;quot;, monospace; line-height: 20px; overflow-wrap: normal; background-color: rgb(255, 255, 255); min-height: auto;&quot; class=&quot;react-code-text react-code-line-contents&quot;&gt;&lt;div style=&quot;box-sizing: border-box;&quot;&gt;&lt;div style=&quot;box-sizing: border-box; padding-left: 10px; position: relative;&quot; data-line-number=&quot;68&quot; data-testid=&quot;code-cell&quot; class=&quot;react-file-line html-div&quot; id=&quot;LC68-narrow&quot;&gt;        &lt;span style=&quot;box-sizing: border-box; color: var(--color-prettylights-syntax-constant); display: inline-block;&quot; class=&quot;pl-c1&quot;&gt;PAREJA&lt;/span&gt;,&lt;/div&gt;&lt;/div&gt;&lt;/div&gt;&lt;div style=&quot;box-sizing: border-box; position: relative; display: flex; width: 652.465px; padding-right: 10px; padding-left: 10px; overflow: visible; color: rgb(31, 35, 40); vertical-align: middle; scroll-margin-top: 20vh; font-family: ui-monospace, SFMono-Regular, &amp;quot;SF Mono&amp;quot;, Menlo, Consolas, &amp;quot;Liberation Mono&amp;quot;, monospace; line-height: 20px; overflow-wrap: normal; background-color: rgb(255, 255, 255); min-height: auto;&quot; class=&quot;react-code-text react-code-line-contents&quot;&gt;&lt;div style=&quot;box-sizing: border-box;&quot;&gt;&lt;div style=&quot;box-sizing: border-box; padding-left: 10px; position: relative;&quot; data-line-number=&quot;69&quot; data-testid=&quot;code-cell&quot; class=&quot;react-file-line html-div&quot; id=&quot;LC69-narrow&quot;&gt;        &lt;span style=&quot;box-sizing: border-box; color: var(--color-prettylights-syntax-constant); display: inline-block;&quot; class=&quot;pl-c1&quot;&gt;DOBLEPAREJA&lt;/span&gt;,&lt;/div&gt;&lt;/div&gt;&lt;/div&gt;&lt;div style=&quot;box-sizing: border-box; position: relative; display: flex; width: 652.465px; padding-right: 10px; padding-left: 10px; overflow: visible; color: rgb(31, 35, 40); vertical-align: middle; scroll-margin-top: 20vh; font-family: ui-monospace, SFMono-Regular, &amp;quot;SF Mono&amp;quot;, Menlo, Consolas, &amp;quot;Liberation Mono&amp;quot;, monospace; line-height: 20px; overflow-wrap: normal; background-color: rgb(255, 255, 255); min-height: auto;&quot; class=&quot;react-code-text react-code-line-contents&quot;&gt;&lt;div style=&quot;box-sizing: border-box;&quot;&gt;&lt;div style=&quot;box-sizing: border-box; padding-left: 10px; position: relative;&quot; data-line-number=&quot;70&quot; data-testid=&quot;code-cell&quot; class=&quot;react-file-line html-div&quot; id=&quot;LC70-narrow&quot;&gt;        &lt;span style=&quot;box-sizing: border-box; color: var(--color-prettylights-syntax-constant); display: inline-block;&quot; class=&quot;pl-c1&quot;&gt;TRIO&lt;/span&gt;,&lt;/div&gt;&lt;/div&gt;&lt;/div&gt;&lt;div style=&quot;box-sizing: border-box; position: relative; display: flex; width: 652.465px; padding-right: 10px; padding-left: 10px; overflow: visible; color: rgb(31, 35, 40); vertical-align: middle; scroll-margin-top: 20vh; font-family: ui-monospace, SFMono-Regular, &amp;quot;SF Mono&amp;quot;, Menlo, Consolas, &amp;quot;Liberation Mono&amp;quot;, monospace; line-height: 20px; overflow-wrap: normal; background-color: rgb(255, 255, 255); min-height: auto;&quot; class=&quot;react-code-text react-code-line-contents&quot;&gt;&lt;div style=&quot;box-sizing: border-box;&quot;&gt;&lt;div style=&quot;box-sizing: border-box; padding-left: 10px; position: relative;&quot; data-line-number=&quot;71&quot; data-testid=&quot;code-cell&quot; class=&quot;react-file-line html-div&quot; id=&quot;LC71-narrow&quot;&gt;        &lt;span style=&quot;box-sizing: border-box; color: var(--color-prettylights-syntax-constant); display: inline-block;&quot; class=&quot;pl-c1&quot;&gt;ESCALERA&lt;/span&gt;,&lt;/div&gt;&lt;/div&gt;&lt;/div&gt;&lt;div style=&quot;box-sizing: border-box; position: relative; display: flex; width: 652.465px; padding-right: 10px; padding-left: 10px; overflow: visible; color: rgb(31, 35, 40); vertical-align: middle; scroll-margin-top: 20vh; font-family: ui-monospace, SFMono-Regular, &amp;quot;SF Mono&amp;quot;, Menlo, Consolas, &amp;quot;Liberation Mono&amp;quot;, monospace; line-height: 20px; overflow-wrap: normal; background-color: rgb(255, 255, 255); min-height: auto;&quot; class=&quot;react-code-text react-code-line-contents&quot;&gt;&lt;div style=&quot;box-sizing: border-box;&quot;&gt;&lt;div style=&quot;box-sizing: border-box; padding-left: 10px; position: relative;&quot; data-line-number=&quot;72&quot; data-testid=&quot;code-cell&quot; class=&quot;react-file-line html-div&quot; id=&quot;LC72-narrow&quot;&gt;        &lt;span style=&quot;box-sizing: border-box; color: var(--color-prettylights-syntax-constant); display: inline-block;&quot; class=&quot;pl-c1&quot;&gt;COLOR&lt;/span&gt;,&lt;/div&gt;&lt;/div&gt;&lt;/div&gt;&lt;div style=&quot;box-sizing: border-box; position: relative; display: flex; width: 652.465px; padding-right: 10px; padding-left: 10px; overflow: visible; color: rgb(31, 35, 40); vertical-align: middle; scroll-margin-top: 20vh; font-family: ui-monospace, SFMono-Regular, &amp;quot;SF Mono&amp;quot;, Menlo, Consolas, &amp;quot;Liberation Mono&amp;quot;, monospace; line-height: 20px; overflow-wrap: normal; background-color: rgb(255, 255, 255); min-height: auto;&quot; class=&quot;react-code-text react-code-line-contents&quot;&gt;&lt;div style=&quot;box-sizing: border-box;&quot;&gt;&lt;div style=&quot;box-sizing: border-box; padding-left: 10px; position: relative;&quot; data-line-number=&quot;73&quot; data-testid=&quot;code-cell&quot; class=&quot;react-file-line html-div&quot; id=&quot;LC73-narrow&quot;&gt;        &lt;span style=&quot;box-sizing: border-box; color: var(--color-prettylights-syntax-constant); display: inline-block;&quot; class=&quot;pl-c1&quot;&gt;FULLHOUSE&lt;/span&gt;,&lt;/div&gt;&lt;/div&gt;&lt;/div&gt;&lt;div style=&quot;box-sizing: border-box; position: relative; display: flex; width: 652.465px; padding-right: 10px; padding-left: 10px; overflow: visible; color: rgb(31, 35, 40); vertical-align: middle; scroll-margin-top: 20vh; font-family: ui-monospace, SFMono-Regular, &amp;quot;SF Mono&amp;quot;, Menlo, Consolas, &amp;quot;Liberation Mono&amp;quot;, monospace; line-height: 20px; overflow-wrap: normal; background-color: rgb(255, 255, 255); min-height: auto;&quot; class=&quot;react-code-text react-code-line-contents&quot;&gt;&lt;div style=&quot;box-sizing: border-box;&quot;&gt;&lt;div style=&quot;box-sizing: border-box; padding-left: 10px; position: relative;&quot; data-line-number=&quot;74&quot; data-testid=&quot;code-cell&quot; class=&quot;react-file-line html-div&quot; id=&quot;LC74-narrow&quot;&gt;        &lt;span style=&quot;box-sizing: border-box; color: var(--color-prettylights-syntax-constant); display: inline-block;&quot; class=&quot;pl-c1&quot;&gt;POKER&lt;/span&gt;,&lt;/div&gt;&lt;/div&gt;&lt;/div&gt;&lt;div style=&quot;box-sizing: border-box; position: relative; display: flex; width: 652.465px; padding-right: 10px; padding-left: 10px; overflow: visible; color: rgb(31, 35, 40); vertical-align: middle; scroll-margin-top: 20vh; font-family: ui-monospace, SFMono-Regular, &amp;quot;SF Mono&amp;quot;, Menlo, Consolas, &amp;quot;Liberation Mono&amp;quot;, monospace; line-height: 20px; overflow-wrap: normal; background-color: rgb(255, 255, 255); min-height: auto;&quot; class=&quot;react-code-text react-code-line-contents&quot;&gt;&lt;div style=&quot;box-sizing: border-box;&quot;&gt;&lt;div style=&quot;box-sizing: border-box; padding-left: 10px; position: relative;&quot; data-line-number=&quot;75&quot; data-testid=&quot;code-cell&quot; class=&quot;react-file-line html-div&quot; id=&quot;LC75-narrow&quot;&gt;        &lt;span style=&quot;box-sizing: border-box; color: var(--color-prettylights-syntax-constant); display: inline-block;&quot; class=&quot;pl-c1&quot;&gt;ESCALERACOLOR&lt;/span&gt;,&lt;/div&gt;&lt;/div&gt;&lt;/div&gt;&lt;div style=&quot;box-sizing: border-box; position: relative; display: flex; width: 652.465px; padding-right: 10px; padding-left: 10px; overflow: visible; color: rgb(31, 35, 40); vertical-align: middle; scroll-margin-top: 20vh; font-family: ui-monospace, SFMono-Regular, &amp;quot;SF Mono&amp;quot;, Menlo, Consolas, &amp;quot;Liberation Mono&amp;quot;, monospace; line-height: 20px; overflow-wrap: normal; background-color: rgb(255, 255, 255); min-height: auto;&quot; class=&quot;react-code-text react-code-line-contents&quot;&gt;&lt;div style=&quot;box-sizing: border-box;&quot;&gt;&lt;div style=&quot;box-sizing: border-box; padding-left: 10px; position: relative;&quot; data-line-number=&quot;76&quot; data-testid=&quot;code-cell&quot; class=&quot;react-file-line html-div&quot; id=&quot;LC76-narrow&quot;&gt;        &lt;span style=&quot;box-sizing: border-box; color: var(--color-prettylights-syntax-constant); display: inline-block;&quot; class=&quot;pl-c1&quot;&gt;REPOKER&lt;/span&gt;&lt;/div&gt;&lt;/div&gt;&lt;/div&gt;" style="text;strokeColor=none;fillColor=none;align=left;verticalAlign=top;spacingLeft=4;spacingRight=4;overflow=hidden;rotatable=0;points=[[0,0.5],[1,0.5]];portConstraint=eastwest;whiteSpace=wrap;html=1;" parent="jCgJ07AGniD74sEElGV5-16" vertex="1">
          <mxGeometry y="26" width="140" height="214" as="geometry" />
        </mxCell>
        <mxCell id="jCgJ07AGniD74sEElGV5-20" value="Carta" style="swimlane;fontStyle=1;align=center;verticalAlign=top;childLayout=stackLayout;horizontal=1;startSize=26;horizontalStack=0;resizeParent=1;resizeParentMax=0;resizeLast=0;collapsible=1;marginBottom=0;whiteSpace=wrap;html=1;" parent="WIyWlLk6GJQsqaUBKTNV-1" vertex="1">
          <mxGeometry x="704" y="210" width="160" height="160" as="geometry" />
        </mxCell>
        <mxCell id="jCgJ07AGniD74sEElGV5-21" value="+ tipo: Tipo&amp;nbsp;&lt;br&gt;+ valor: Integer" style="text;strokeColor=none;fillColor=none;align=left;verticalAlign=top;spacingLeft=4;spacingRight=4;overflow=hidden;rotatable=0;points=[[0,0.5],[1,0.5]];portConstraint=eastwest;whiteSpace=wrap;html=1;" parent="jCgJ07AGniD74sEElGV5-20" vertex="1">
          <mxGeometry y="26" width="160" height="44" as="geometry" />
        </mxCell>
        <mxCell id="jCgJ07AGniD74sEElGV5-22" value="" style="line;strokeWidth=1;fillColor=none;align=left;verticalAlign=middle;spacingTop=-1;spacingLeft=3;spacingRight=3;rotatable=0;labelPosition=right;points=[];portConstraint=eastwest;strokeColor=inherit;" parent="jCgJ07AGniD74sEElGV5-20" vertex="1">
          <mxGeometry y="70" width="160" height="8" as="geometry" />
        </mxCell>
        <mxCell id="jCgJ07AGniD74sEElGV5-23" value="+&amp;nbsp;getValor(): int&lt;br&gt;+&amp;nbsp;igualTipo(Carta): boolean&lt;br&gt;+&amp;nbsp;getTipo(): Tipo&lt;br&gt;+&amp;nbsp;toString(): String" style="text;strokeColor=none;fillColor=none;align=left;verticalAlign=top;spacingLeft=4;spacingRight=4;overflow=hidden;rotatable=0;points=[[0,0.5],[1,0.5]];portConstraint=eastwest;whiteSpace=wrap;html=1;" parent="jCgJ07AGniD74sEElGV5-20" vertex="1">
          <mxGeometry y="78" width="160" height="82" as="geometry" />
        </mxCell>
        <mxCell id="jCgJ07AGniD74sEElGV5-24" value="«interface»&lt;br&gt;&lt;b&gt;Comparable&amp;lt;Carta&amp;gt;&lt;/b&gt;" style="html=1;whiteSpace=wrap;" parent="WIyWlLk6GJQsqaUBKTNV-1" vertex="1">
          <mxGeometry x="434.5" y="470" width="139" height="50" as="geometry" />
        </mxCell>
        <mxCell id="jCgJ07AGniD74sEElGV5-25" value="Enum: Tipo" style="swimlane;fontStyle=0;childLayout=stackLayout;horizontal=1;startSize=26;fillColor=none;horizontalStack=0;resizeParent=1;resizeParentMax=0;resizeLast=0;collapsible=1;marginBottom=0;whiteSpace=wrap;html=1;" parent="WIyWlLk6GJQsqaUBKTNV-1" vertex="1">
          <mxGeometry x="713.5" y="440" width="140" height="90" as="geometry" />
        </mxCell>
        <mxCell id="jCgJ07AGniD74sEElGV5-26" value="&lt;div&gt;&lt;span style=&quot;white-space: pre;&quot;&gt;&#x9;&lt;/span&gt;CORAZON,&lt;/div&gt;&lt;div&gt;&amp;nbsp; &amp;nbsp; &amp;nbsp; &amp;nbsp; PICA,&lt;/div&gt;&lt;div&gt;&amp;nbsp; &amp;nbsp; &amp;nbsp; &amp;nbsp; TREBOL,&lt;/div&gt;&lt;div&gt;&amp;nbsp; &amp;nbsp; &amp;nbsp; &amp;nbsp; DIAMANTE&lt;/div&gt;" style="text;strokeColor=none;fillColor=none;align=left;verticalAlign=top;spacingLeft=4;spacingRight=4;overflow=hidden;rotatable=0;points=[[0,0.5],[1,0.5]];portConstraint=eastwest;whiteSpace=wrap;html=1;" parent="jCgJ07AGniD74sEElGV5-25" vertex="1">
          <mxGeometry y="26" width="140" height="64" as="geometry" />
        </mxCell>
        <mxCell id="VlVq8zEwPOwb3AWTw42Q-21" style="edgeStyle=orthogonalEdgeStyle;rounded=0;orthogonalLoop=1;jettySize=auto;html=1;entryX=0.5;entryY=0;entryDx=0;entryDy=0;" edge="1" parent="WIyWlLk6GJQsqaUBKTNV-1" source="jCgJ07AGniD74sEElGV5-33" target="jCgJ07AGniD74sEElGV5-24">
          <mxGeometry relative="1" as="geometry" />
        </mxCell>
        <mxCell id="jCgJ07AGniD74sEElGV5-33" value="Baraja" style="swimlane;fontStyle=1;align=center;verticalAlign=top;childLayout=stackLayout;horizontal=1;startSize=26;horizontalStack=0;resizeParent=1;resizeParentMax=0;resizeLast=0;collapsible=1;marginBottom=0;whiteSpace=wrap;html=1;" parent="WIyWlLk6GJQsqaUBKTNV-1" vertex="1">
          <mxGeometry x="374" y="220" width="260" height="170" as="geometry" />
        </mxCell>
        <mxCell id="jCgJ07AGniD74sEElGV5-34" value="+ cantidad: int&lt;br&gt;+&amp;nbsp;cartas:&amp;nbsp;ArrayList&lt;span style=&quot;color: rgb(31, 35, 40); font-family: ui-monospace, SFMono-Regular, &amp;quot;SF Mono&amp;quot;, Menlo, Consolas, &amp;quot;Liberation Mono&amp;quot;, monospace; background-color: rgb(255, 255, 255);&quot;&gt;&amp;lt;&lt;/span&gt;&lt;span style=&quot;box-sizing: border-box; color: var(--color-prettylights-syntax-storage-modifier-import); display: inline-block; font-family: ui-monospace, SFMono-Regular, &amp;quot;SF Mono&amp;quot;, Menlo, Consolas, &amp;quot;Liberation Mono&amp;quot;, monospace; background-color: rgb(255, 255, 255);&quot; class=&quot;pl-smi&quot;&gt;Carta&lt;/span&gt;&lt;span style=&quot;color: rgb(31, 35, 40); font-family: ui-monospace, SFMono-Regular, &amp;quot;SF Mono&amp;quot;, Menlo, Consolas, &amp;quot;Liberation Mono&amp;quot;, monospace; background-color: rgb(255, 255, 255);&quot;&gt;&amp;gt;&lt;/span&gt;" style="text;strokeColor=none;fillColor=none;align=left;verticalAlign=top;spacingLeft=4;spacingRight=4;overflow=hidden;rotatable=0;points=[[0,0.5],[1,0.5]];portConstraint=eastwest;whiteSpace=wrap;html=1;" parent="jCgJ07AGniD74sEElGV5-33" vertex="1">
          <mxGeometry y="26" width="260" height="44" as="geometry" />
        </mxCell>
        <mxCell id="jCgJ07AGniD74sEElGV5-35" value="" style="line;strokeWidth=1;fillColor=none;align=left;verticalAlign=middle;spacingTop=-1;spacingLeft=3;spacingRight=3;rotatable=0;labelPosition=right;points=[];portConstraint=eastwest;strokeColor=inherit;" parent="jCgJ07AGniD74sEElGV5-33" vertex="1">
          <mxGeometry y="70" width="260" height="8" as="geometry" />
        </mxCell>
        <mxCell id="jCgJ07AGniD74sEElGV5-36" value="+&amp;nbsp;darCartas&lt;span style=&quot;color: rgb(31, 35, 40); font-family: ui-monospace, SFMono-Regular, &amp;quot;SF Mono&amp;quot;, Menlo, Consolas, &amp;quot;Liberation Mono&amp;quot;, monospace; background-color: rgb(255, 255, 255);&quot;&gt;(&lt;/span&gt;&lt;span style=&quot;box-sizing: border-box; color: var(--color-prettylights-syntax-storage-modifier-import); display: inline-block; font-family: ui-monospace, SFMono-Regular, &amp;quot;SF Mono&amp;quot;, Menlo, Consolas, &amp;quot;Liberation Mono&amp;quot;, monospace; background-color: rgb(255, 255, 255);&quot; class=&quot;pl-smi&quot;&gt;int): ArrayList&amp;lt;Carta&amp;gt;&lt;/span&gt;&lt;br&gt;+&amp;nbsp;repartir&lt;span style=&quot;color: rgb(31, 35, 40); font-family: ui-monospace, SFMono-Regular, &amp;quot;SF Mono&amp;quot;, Menlo, Consolas, &amp;quot;Liberation Mono&amp;quot;, monospace; background-color: rgb(255, 255, 255);&quot;&gt;():&amp;nbsp;&lt;/span&gt;ArrayList&amp;lt;Carta&amp;gt;&lt;br&gt;+&amp;nbsp;recibirCartas&lt;span style=&quot;color: rgb(31, 35, 40); font-family: ui-monospace, SFMono-Regular, &amp;quot;SF Mono&amp;quot;, Menlo, Consolas, &amp;quot;Liberation Mono&amp;quot;, monospace; background-color: rgb(255, 255, 255);&quot;&gt;(&lt;/span&gt;&lt;span style=&quot;box-sizing: border-box; color: var(--color-prettylights-syntax-storage-modifier-import); display: inline-block; font-family: ui-monospace, SFMono-Regular, &amp;quot;SF Mono&amp;quot;, Menlo, Consolas, &amp;quot;Liberation Mono&amp;quot;, monospace; background-color: rgb(255, 255, 255);&quot; class=&quot;pl-smi&quot;&gt;ArrayList&lt;/span&gt;&lt;span style=&quot;color: rgb(31, 35, 40); font-family: ui-monospace, SFMono-Regular, &amp;quot;SF Mono&amp;quot;, Menlo, Consolas, &amp;quot;Liberation Mono&amp;quot;, monospace; background-color: rgb(255, 255, 255);&quot;&gt;&amp;lt;&lt;/span&gt;&lt;span style=&quot;box-sizing: border-box; color: var(--color-prettylights-syntax-storage-modifier-import); display: inline-block; font-family: ui-monospace, SFMono-Regular, &amp;quot;SF Mono&amp;quot;, Menlo, Consolas, &amp;quot;Liberation Mono&amp;quot;, monospace; background-color: rgb(255, 255, 255);&quot; class=&quot;pl-smi&quot;&gt;Carta&lt;/span&gt;&lt;span style=&quot;color: rgb(31, 35, 40); font-family: ui-monospace, SFMono-Regular, &amp;quot;SF Mono&amp;quot;, Menlo, Consolas, &amp;quot;Liberation Mono&amp;quot;, monospace; background-color: rgb(255, 255, 255);&quot;&gt;&amp;gt;): void&lt;/span&gt;&lt;br&gt;+&amp;nbsp;barajar&lt;span style=&quot;color: rgb(31, 35, 40); font-family: ui-monospace, SFMono-Regular, &amp;quot;SF Mono&amp;quot;, Menlo, Consolas, &amp;quot;Liberation Mono&amp;quot;, monospace; background-color: rgb(255, 255, 255);&quot;&gt;(): void&lt;/span&gt;&lt;br&gt;+&amp;nbsp;toString&lt;span style=&quot;color: rgb(31, 35, 40); font-family: ui-monospace, SFMono-Regular, &amp;quot;SF Mono&amp;quot;, Menlo, Consolas, &amp;quot;Liberation Mono&amp;quot;, monospace; background-color: rgb(255, 255, 255);&quot;&gt;(): String&lt;/span&gt;" style="text;strokeColor=none;fillColor=none;align=left;verticalAlign=top;spacingLeft=4;spacingRight=4;overflow=hidden;rotatable=0;points=[[0,0.5],[1,0.5]];portConstraint=eastwest;whiteSpace=wrap;html=1;" parent="jCgJ07AGniD74sEElGV5-33" vertex="1">
          <mxGeometry y="78" width="260" height="92" as="geometry" />
        </mxCell>
        <mxCell id="jCgJ07AGniD74sEElGV5-37" value="ControladorApuesta" style="swimlane;fontStyle=1;align=center;verticalAlign=top;childLayout=stackLayout;horizontal=1;startSize=26;horizontalStack=0;resizeParent=1;resizeParentMax=0;resizeLast=0;collapsible=1;marginBottom=0;whiteSpace=wrap;html=1;" parent="WIyWlLk6GJQsqaUBKTNV-1" vertex="1">
          <mxGeometry x="-590" y="-140" width="280" height="180" as="geometry" />
        </mxCell>
        <mxCell id="jCgJ07AGniD74sEElGV5-38" value="+ vista:&amp;nbsp;VistaApuesta&lt;br&gt;+&amp;nbsp;jugador: Jugador&lt;br&gt;+&amp;nbsp;modelo: Ronda&lt;br&gt;+&amp;nbsp;apuesta: int" style="text;strokeColor=none;fillColor=none;align=left;verticalAlign=top;spacingLeft=4;spacingRight=4;overflow=hidden;rotatable=0;points=[[0,0.5],[1,0.5]];portConstraint=eastwest;whiteSpace=wrap;html=1;" parent="jCgJ07AGniD74sEElGV5-37" vertex="1">
          <mxGeometry y="26" width="280" height="64" as="geometry" />
        </mxCell>
        <mxCell id="jCgJ07AGniD74sEElGV5-39" value="" style="line;strokeWidth=1;fillColor=none;align=left;verticalAlign=middle;spacingTop=-1;spacingLeft=3;spacingRight=3;rotatable=0;labelPosition=right;points=[];portConstraint=eastwest;strokeColor=inherit;" parent="jCgJ07AGniD74sEElGV5-37" vertex="1">
          <mxGeometry y="90" width="280" height="8" as="geometry" />
        </mxCell>
        <mxCell id="jCgJ07AGniD74sEElGV5-40" value="+&amp;nbsp;setModelo&lt;span style=&quot;color: rgb(31, 35, 40); font-family: ui-monospace, SFMono-Regular, &amp;quot;SF Mono&amp;quot;, Menlo, Consolas, &amp;quot;Liberation Mono&amp;quot;, monospace; background-color: rgb(255, 255, 255);&quot;&gt;(&lt;/span&gt;&lt;span style=&quot;box-sizing: border-box; color: var(--color-prettylights-syntax-storage-modifier-import); display: inline-block; font-family: ui-monospace, SFMono-Regular, &amp;quot;SF Mono&amp;quot;, Menlo, Consolas, &amp;quot;Liberation Mono&amp;quot;, monospace; background-color: rgb(255, 255, 255);&quot; class=&quot;pl-smi&quot;&gt;Ronda): void&lt;/span&gt;&amp;nbsp;&lt;br&gt;+&amp;nbsp;agregarVerCartas&lt;span style=&quot;color: rgb(31, 35, 40); font-family: ui-monospace, SFMono-Regular, &amp;quot;SF Mono&amp;quot;, Menlo, Consolas, &amp;quot;Liberation Mono&amp;quot;, monospace; background-color: rgb(255, 255, 255);&quot;&gt;(&lt;/span&gt;&lt;span style=&quot;box-sizing: border-box; color: var(--color-prettylights-syntax-storage-modifier-import); display: inline-block; font-family: ui-monospace, SFMono-Regular, &amp;quot;SF Mono&amp;quot;, Menlo, Consolas, &amp;quot;Liberation Mono&amp;quot;, monospace; background-color: rgb(255, 255, 255);&quot; class=&quot;pl-smi&quot;&gt;VerCartas): void&lt;/span&gt;&lt;br&gt;+&amp;nbsp;agregarMironEventos&lt;span style=&quot;color: rgb(31, 35, 40); font-family: ui-monospace, SFMono-Regular, &amp;quot;SF Mono&amp;quot;, Menlo, Consolas, &amp;quot;Liberation Mono&amp;quot;, monospace; background-color: rgb(255, 255, 255);&quot;&gt;(&lt;/span&gt;&lt;span style=&quot;box-sizing: border-box; color: var(--color-prettylights-syntax-storage-modifier-import); display: inline-block; font-family: ui-monospace, SFMono-Regular, &amp;quot;SF Mono&amp;quot;, Menlo, Consolas, &amp;quot;Liberation Mono&amp;quot;, monospace; background-color: rgb(255, 255, 255);&quot; class=&quot;pl-smi&quot;&gt;Observer): void&lt;/span&gt;&lt;br&gt;+&amp;nbsp;recibirApuesta&lt;span style=&quot;color: rgb(31, 35, 40); font-family: ui-monospace, SFMono-Regular, &amp;quot;SF Mono&amp;quot;, Menlo, Consolas, &amp;quot;Liberation Mono&amp;quot;, monospace; background-color: rgb(255, 255, 255);&quot;&gt;(&lt;/span&gt;&lt;span style=&quot;box-sizing: border-box; color: var(--color-prettylights-syntax-storage-modifier-import); display: inline-block; font-family: ui-monospace, SFMono-Regular, &amp;quot;SF Mono&amp;quot;, Menlo, Consolas, &amp;quot;Liberation Mono&amp;quot;, monospace; background-color: rgb(255, 255, 255);&quot; class=&quot;pl-smi&quot;&gt;int): void&lt;/span&gt;&lt;br&gt;+&amp;nbsp;nombreJugador&lt;span style=&quot;color: rgb(31, 35, 40); font-family: ui-monospace, SFMono-Regular, &amp;quot;SF Mono&amp;quot;, Menlo, Consolas, &amp;quot;Liberation Mono&amp;quot;, monospace; background-color: rgb(255, 255, 255);&quot;&gt;(): String&lt;/span&gt;" style="text;strokeColor=none;fillColor=none;align=left;verticalAlign=top;spacingLeft=4;spacingRight=4;overflow=hidden;rotatable=0;points=[[0,0.5],[1,0.5]];portConstraint=eastwest;whiteSpace=wrap;html=1;" parent="jCgJ07AGniD74sEElGV5-37" vertex="1">
          <mxGeometry y="98" width="280" height="82" as="geometry" />
        </mxCell>
        <mxCell id="jCgJ07AGniD74sEElGV5-41" value="ControladorDescarte" style="swimlane;fontStyle=1;align=center;verticalAlign=top;childLayout=stackLayout;horizontal=1;startSize=20;horizontalStack=0;resizeParent=1;resizeParentMax=0;resizeLast=0;collapsible=1;marginBottom=0;whiteSpace=wrap;html=1;" parent="WIyWlLk6GJQsqaUBKTNV-1" vertex="1">
          <mxGeometry x="-590" y="-380" width="300" height="160" as="geometry" />
        </mxCell>
        <mxCell id="jCgJ07AGniD74sEElGV5-42" value="+ vista:&amp;nbsp;VistaApuesta&lt;br style=&quot;border-color: var(--border-color);&quot;&gt;+&amp;nbsp;jugador: Jugador&lt;br style=&quot;border-color: var(--border-color);&quot;&gt;+&amp;nbsp;modelo: Ronda" style="text;strokeColor=none;fillColor=none;align=left;verticalAlign=top;spacingLeft=4;spacingRight=4;overflow=hidden;rotatable=0;points=[[0,0.5],[1,0.5]];portConstraint=eastwest;whiteSpace=wrap;html=1;" parent="jCgJ07AGniD74sEElGV5-41" vertex="1">
          <mxGeometry y="20" width="300" height="50" as="geometry" />
        </mxCell>
        <mxCell id="jCgJ07AGniD74sEElGV5-43" value="" style="line;strokeWidth=1;fillColor=none;align=left;verticalAlign=middle;spacingTop=-1;spacingLeft=3;spacingRight=3;rotatable=0;labelPosition=right;points=[];portConstraint=eastwest;strokeColor=inherit;" parent="jCgJ07AGniD74sEElGV5-41" vertex="1">
          <mxGeometry y="70" width="300" height="8" as="geometry" />
        </mxCell>
        <mxCell id="jCgJ07AGniD74sEElGV5-44" value="+&amp;nbsp;setModelo&lt;span style=&quot;color: rgb(31, 35, 40); font-family: ui-monospace, SFMono-Regular, &amp;quot;SF Mono&amp;quot;, Menlo, Consolas, &amp;quot;Liberation Mono&amp;quot;, monospace; background-color: rgb(255, 255, 255);&quot;&gt;(&lt;/span&gt;&lt;span style=&quot;box-sizing: border-box; color: var(--color-prettylights-syntax-storage-modifier-import); display: inline-block; font-family: ui-monospace, SFMono-Regular, &amp;quot;SF Mono&amp;quot;, Menlo, Consolas, &amp;quot;Liberation Mono&amp;quot;, monospace; background-color: rgb(255, 255, 255);&quot; class=&quot;pl-smi&quot;&gt;Ronda): void&lt;/span&gt;&lt;br&gt;+&amp;nbsp;agregarVerCartas&lt;span style=&quot;color: rgb(31, 35, 40); font-family: ui-monospace, SFMono-Regular, &amp;quot;SF Mono&amp;quot;, Menlo, Consolas, &amp;quot;Liberation Mono&amp;quot;, monospace; background-color: rgb(255, 255, 255);&quot;&gt;(&lt;/span&gt;&lt;span style=&quot;box-sizing: border-box; color: var(--color-prettylights-syntax-storage-modifier-import); display: inline-block; font-family: ui-monospace, SFMono-Regular, &amp;quot;SF Mono&amp;quot;, Menlo, Consolas, &amp;quot;Liberation Mono&amp;quot;, monospace; background-color: rgb(255, 255, 255);&quot; class=&quot;pl-smi&quot;&gt;VerCartas): void&lt;/span&gt;&lt;br&gt;+&amp;nbsp;recibirDescartes&lt;span style=&quot;color: rgb(31, 35, 40); font-family: ui-monospace, SFMono-Regular, &amp;quot;SF Mono&amp;quot;, Menlo, Consolas, &amp;quot;Liberation Mono&amp;quot;, monospace; background-color: rgb(255, 255, 255);&quot;&gt;(&lt;/span&gt;&lt;span style=&quot;box-sizing: border-box; color: var(--color-prettylights-syntax-storage-modifier-import); display: inline-block; font-family: ui-monospace, SFMono-Regular, &amp;quot;SF Mono&amp;quot;, Menlo, Consolas, &amp;quot;Liberation Mono&amp;quot;, monospace; background-color: rgb(255, 255, 255);&quot; class=&quot;pl-smi&quot;&gt;ArrayList&lt;/span&gt;&lt;span style=&quot;color: rgb(31, 35, 40); font-family: ui-monospace, SFMono-Regular, &amp;quot;SF Mono&amp;quot;, Menlo, Consolas, &amp;quot;Liberation Mono&amp;quot;, monospace; background-color: rgb(255, 255, 255);&quot;&gt;&amp;lt;&lt;/span&gt;&lt;span style=&quot;box-sizing: border-box; color: var(--color-prettylights-syntax-storage-modifier-import); display: inline-block; font-family: ui-monospace, SFMono-Regular, &amp;quot;SF Mono&amp;quot;, Menlo, Consolas, &amp;quot;Liberation Mono&amp;quot;, monospace; background-color: rgb(255, 255, 255);&quot; class=&quot;pl-smi&quot;&gt;Integer&lt;/span&gt;&lt;span style=&quot;color: rgb(31, 35, 40); font-family: ui-monospace, SFMono-Regular, &amp;quot;SF Mono&amp;quot;, Menlo, Consolas, &amp;quot;Liberation Mono&amp;quot;, monospace; background-color: rgb(255, 255, 255);&quot;&gt;&amp;gt;): void&lt;/span&gt;&lt;br&gt;+ agregarMironEventos&lt;span style=&quot;color: rgb(31, 35, 40); font-family: ui-monospace, SFMono-Regular, &amp;quot;SF Mono&amp;quot;, Menlo, Consolas, &amp;quot;Liberation Mono&amp;quot;, monospace; background-color: rgb(255, 255, 255);&quot;&gt;(&lt;/span&gt;&lt;span style=&quot;box-sizing: border-box; color: var(--color-prettylights-syntax-storage-modifier-import); display: inline-block; font-family: ui-monospace, SFMono-Regular, &amp;quot;SF Mono&amp;quot;, Menlo, Consolas, &amp;quot;Liberation Mono&amp;quot;, monospace; background-color: rgb(255, 255, 255);&quot; class=&quot;pl-smi&quot;&gt;Observer): void&lt;br&gt;&lt;/span&gt;&lt;br&gt;+ &lt;span style=&quot;box-sizing: border-box; color: var(--color-prettylights-syntax-entity); display: inline-block; font-family: ui-monospace, SFMono-Regular, &amp;quot;SF Mono&amp;quot;, Menlo, Consolas, &amp;quot;Liberation Mono&amp;quot;, monospace; background-color: rgb(255, 255, 255);&quot; class=&quot;pl-en&quot;&gt;nombreJugador&lt;/span&gt;&lt;span style=&quot;color: rgb(31, 35, 40); font-family: ui-monospace, SFMono-Regular, &amp;quot;SF Mono&amp;quot;, Menlo, Consolas, &amp;quot;Liberation Mono&amp;quot;, monospace; background-color: rgb(255, 255, 255);&quot;&gt;(): String&lt;/span&gt;" style="text;strokeColor=none;fillColor=none;align=left;verticalAlign=top;spacingLeft=4;spacingRight=4;overflow=hidden;rotatable=0;points=[[0,0.5],[1,0.5]];portConstraint=eastwest;whiteSpace=wrap;html=1;" parent="jCgJ07AGniD74sEElGV5-41" vertex="1">
          <mxGeometry y="78" width="300" height="82" as="geometry" />
        </mxCell>
        <mxCell id="jCgJ07AGniD74sEElGV5-46" value="VistaDescarte" style="swimlane;fontStyle=1;align=center;verticalAlign=top;childLayout=stackLayout;horizontal=1;startSize=26;horizontalStack=0;resizeParent=1;resizeParentMax=0;resizeLast=0;collapsible=1;marginBottom=0;whiteSpace=wrap;html=1;" parent="WIyWlLk6GJQsqaUBKTNV-1" vertex="1">
          <mxGeometry x="-1240" y="-60" width="520" height="320" as="geometry" />
        </mxCell>
        <mxCell id="jCgJ07AGniD74sEElGV5-47" value="+ controlador: ControladorDescarte&lt;br&gt;+ jugadores: ArrayList&amp;lt;String&amp;gt;" style="text;strokeColor=none;fillColor=none;align=left;verticalAlign=top;spacingLeft=4;spacingRight=4;overflow=hidden;rotatable=0;points=[[0,0.5],[1,0.5]];portConstraint=eastwest;whiteSpace=wrap;html=1;" parent="jCgJ07AGniD74sEElGV5-46" vertex="1">
          <mxGeometry y="26" width="520" height="94" as="geometry" />
        </mxCell>
        <mxCell id="jCgJ07AGniD74sEElGV5-48" value="" style="line;strokeWidth=1;fillColor=none;align=left;verticalAlign=middle;spacingTop=-1;spacingLeft=3;spacingRight=3;rotatable=0;labelPosition=right;points=[];portConstraint=eastwest;strokeColor=inherit;" parent="jCgJ07AGniD74sEElGV5-46" vertex="1">
          <mxGeometry y="120" width="520" height="8" as="geometry" />
        </mxCell>
        <mxCell id="jCgJ07AGniD74sEElGV5-49" value="+ method(ty+ setControlador (ControladorDescarte): void&lt;br&gt;+ setImagenes(ArrayList&amp;lt;String&amp;gt;): void&lt;br&gt;+&amp;nbsp;actualizarCartas&lt;span style=&quot;color: rgb(31, 35, 40); font-family: ui-monospace, SFMono-Regular, &amp;quot;SF Mono&amp;quot;, Menlo, Consolas, &amp;quot;Liberation Mono&amp;quot;, monospace; background-color: rgb(255, 255, 255);&quot;&gt;(&lt;/span&gt;&lt;span style=&quot;box-sizing: border-box; color: var(--color-prettylights-syntax-storage-modifier-import); display: inline-block; font-family: ui-monospace, SFMono-Regular, &amp;quot;SF Mono&amp;quot;, Menlo, Consolas, &amp;quot;Liberation Mono&amp;quot;, monospace; background-color: rgb(255, 255, 255);&quot; class=&quot;pl-smi&quot;&gt;ArrayList&lt;/span&gt;&lt;span style=&quot;color: rgb(31, 35, 40); font-family: ui-monospace, SFMono-Regular, &amp;quot;SF Mono&amp;quot;, Menlo, Consolas, &amp;quot;Liberation Mono&amp;quot;, monospace; background-color: rgb(255, 255, 255);&quot;&gt;&amp;lt;&lt;/span&gt;&lt;span style=&quot;box-sizing: border-box; color: var(--color-prettylights-syntax-storage-modifier-import); display: inline-block; font-family: ui-monospace, SFMono-Regular, &amp;quot;SF Mono&amp;quot;, Menlo, Consolas, &amp;quot;Liberation Mono&amp;quot;, monospace; background-color: rgb(255, 255, 255);&quot; class=&quot;pl-smi&quot;&gt;String&lt;/span&gt;&amp;gt;): void&lt;br&gt;+&amp;nbsp;&lt;span style=&quot;box-sizing: border-box; color: var(--color-prettylights-syntax-entity); display: inline-block; font-family: ui-monospace, SFMono-Regular, &amp;quot;SF Mono&amp;quot;, Menlo, Consolas, &amp;quot;Liberation Mono&amp;quot;, monospace; background-color: rgb(255, 255, 255);&quot; class=&quot;pl-en&quot;&gt;actualizarJugada&lt;/span&gt;&lt;span style=&quot;color: rgb(31, 35, 40); font-family: ui-monospace, SFMono-Regular, &amp;quot;SF Mono&amp;quot;, Menlo, Consolas, &amp;quot;Liberation Mono&amp;quot;, monospace; background-color: rgb(255, 255, 255);&quot;&gt;(&lt;/span&gt;&lt;span style=&quot;box-sizing: border-box; color: var(--color-prettylights-syntax-storage-modifier-import); display: inline-block; font-family: ui-monospace, SFMono-Regular, &amp;quot;SF Mono&amp;quot;, Menlo, Consolas, &amp;quot;Liberation Mono&amp;quot;, monospace; background-color: rgb(255, 255, 255);&quot; class=&quot;pl-smi&quot;&gt;String): void&lt;br&gt;&lt;/span&gt;&lt;br&gt;+&amp;nbsp;&lt;span style=&quot;box-sizing: border-box; color: var(--color-prettylights-syntax-entity); display: inline-block; font-family: ui-monospace, SFMono-Regular, &amp;quot;SF Mono&amp;quot;, Menlo, Consolas, &amp;quot;Liberation Mono&amp;quot;, monospace; background-color: rgb(255, 255, 255);&quot; class=&quot;pl-en&quot;&gt;update&lt;/span&gt;&lt;span style=&quot;color: rgb(31, 35, 40); font-family: ui-monospace, SFMono-Regular, &amp;quot;SF Mono&amp;quot;, Menlo, Consolas, &amp;quot;Liberation Mono&amp;quot;, monospace; background-color: rgb(255, 255, 255);&quot;&gt;(&lt;/span&gt;&lt;span style=&quot;box-sizing: border-box; color: var(--color-prettylights-syntax-storage-modifier-import); display: inline-block; font-family: ui-monospace, SFMono-Regular, &amp;quot;SF Mono&amp;quot;, Menlo, Consolas, &amp;quot;Liberation Mono&amp;quot;, monospace; background-color: rgb(255, 255, 255);&quot; class=&quot;pl-smi&quot;&gt;String): void&lt;/span&gt;&lt;br&gt;+&amp;nbsp;&lt;span style=&quot;box-sizing: border-box; color: var(--color-prettylights-syntax-entity); display: inline-block; font-family: ui-monospace, SFMono-Regular, &amp;quot;SF Mono&amp;quot;, Menlo, Consolas, &amp;quot;Liberation Mono&amp;quot;, monospace; background-color: rgb(255, 255, 255);&quot; class=&quot;pl-en&quot;&gt;updateApuestaMin&lt;/span&gt;&lt;span style=&quot;color: rgb(31, 35, 40); font-family: ui-monospace, SFMono-Regular, &amp;quot;SF Mono&amp;quot;, Menlo, Consolas, &amp;quot;Liberation Mono&amp;quot;, monospace; background-color: rgb(255, 255, 255);&quot;&gt;(&lt;/span&gt;&lt;span style=&quot;box-sizing: border-box; color: var(--color-prettylights-syntax-storage-modifier-import); display: inline-block; font-family: ui-monospace, SFMono-Regular, &amp;quot;SF Mono&amp;quot;, Menlo, Consolas, &amp;quot;Liberation Mono&amp;quot;, monospace; background-color: rgb(255, 255, 255);&quot; class=&quot;pl-smi&quot;&gt;int): void&lt;/span&gt;&lt;br&gt;+&amp;nbsp;&lt;span style=&quot;box-sizing: border-box; color: var(--color-prettylights-syntax-entity); display: inline-block; font-family: ui-monospace, SFMono-Regular, &amp;quot;SF Mono&amp;quot;, Menlo, Consolas, &amp;quot;Liberation Mono&amp;quot;, monospace; background-color: rgb(255, 255, 255);&quot; class=&quot;pl-en&quot;&gt;updateApuestaInicial&lt;/span&gt;&lt;span style=&quot;color: rgb(31, 35, 40); font-family: ui-monospace, SFMono-Regular, &amp;quot;SF Mono&amp;quot;, Menlo, Consolas, &amp;quot;Liberation Mono&amp;quot;, monospace; background-color: rgb(255, 255, 255);&quot;&gt;(&lt;/span&gt;&lt;span style=&quot;box-sizing: border-box; color: var(--color-prettylights-syntax-storage-modifier-import); display: inline-block; font-family: ui-monospace, SFMono-Regular, &amp;quot;SF Mono&amp;quot;, Menlo, Consolas, &amp;quot;Liberation Mono&amp;quot;, monospace; background-color: rgb(255, 255, 255);&quot; class=&quot;pl-smi&quot;&gt;int): void&lt;/span&gt;&lt;br&gt;+&amp;nbsp;&lt;span style=&quot;box-sizing: border-box; color: var(--color-prettylights-syntax-entity); display: inline-block; font-family: ui-monospace, SFMono-Regular, &amp;quot;SF Mono&amp;quot;, Menlo, Consolas, &amp;quot;Liberation Mono&amp;quot;, monospace; background-color: rgb(255, 255, 255);&quot; class=&quot;pl-en&quot;&gt;updateMontoBote&lt;/span&gt;&lt;span style=&quot;color: rgb(31, 35, 40); font-family: ui-monospace, SFMono-Regular, &amp;quot;SF Mono&amp;quot;, Menlo, Consolas, &amp;quot;Liberation Mono&amp;quot;, monospace; background-color: rgb(255, 255, 255);&quot;&gt;(&lt;/span&gt;&lt;span style=&quot;box-sizing: border-box; color: var(--color-prettylights-syntax-storage-modifier-import); display: inline-block; font-family: ui-monospace, SFMono-Regular, &amp;quot;SF Mono&amp;quot;, Menlo, Consolas, &amp;quot;Liberation Mono&amp;quot;, monospace; background-color: rgb(255, 255, 255);&quot; class=&quot;pl-smi&quot;&gt;int): void&lt;/span&gt;&lt;br&gt;+&amp;nbsp;&lt;span style=&quot;box-sizing: border-box; color: var(--color-prettylights-syntax-entity); display: inline-block; font-family: ui-monospace, SFMono-Regular, &amp;quot;SF Mono&amp;quot;, Menlo, Consolas, &amp;quot;Liberation Mono&amp;quot;, monospace; background-color: rgb(255, 255, 255);&quot; class=&quot;pl-en&quot;&gt;updateTurnoActual&lt;/span&gt;&lt;span style=&quot;color: rgb(31, 35, 40); font-family: ui-monospace, SFMono-Regular, &amp;quot;SF Mono&amp;quot;, Menlo, Consolas, &amp;quot;Liberation Mono&amp;quot;, monospace; background-color: rgb(255, 255, 255);&quot;&gt;(&lt;/span&gt;&lt;span style=&quot;box-sizing: border-box; color: var(--color-prettylights-syntax-storage-modifier-import); display: inline-block; font-family: ui-monospace, SFMono-Regular, &amp;quot;SF Mono&amp;quot;, Menlo, Consolas, &amp;quot;Liberation Mono&amp;quot;, monospace; background-color: rgb(255, 255, 255);&quot; class=&quot;pl-smi&quot;&gt;String): void&lt;/span&gt;&lt;br&gt;+ up&lt;span style=&quot;box-sizing: border-box; color: var(--color-prettylights-syntax-entity); display: inline-block; font-family: ui-monospace, SFMono-Regular, &amp;quot;SF Mono&amp;quot;, Menlo, Consolas, &amp;quot;Liberation Mono&amp;quot;, monospace; background-color: rgb(255, 255, 255);&quot; class=&quot;pl-en&quot;&gt;dateJugadores&lt;/span&gt;&lt;span style=&quot;color: rgb(31, 35, 40); font-family: ui-monospace, SFMono-Regular, &amp;quot;SF Mono&amp;quot;, Menlo, Consolas, &amp;quot;Liberation Mono&amp;quot;, monospace; background-color: rgb(255, 255, 255);&quot;&gt;(&lt;/span&gt;&lt;span style=&quot;box-sizing: border-box; color: var(--color-prettylights-syntax-storage-modifier-import); display: inline-block; font-family: ui-monospace, SFMono-Regular, &amp;quot;SF Mono&amp;quot;, Menlo, Consolas, &amp;quot;Liberation Mono&amp;quot;, monospace; background-color: rgb(255, 255, 255);&quot; class=&quot;pl-smi&quot;&gt;ArrayList&lt;/span&gt;&lt;span style=&quot;color: rgb(31, 35, 40); font-family: ui-monospace, SFMono-Regular, &amp;quot;SF Mono&amp;quot;, Menlo, Consolas, &amp;quot;Liberation Mono&amp;quot;, monospace; background-color: rgb(255, 255, 255);&quot;&gt;&amp;lt;&lt;/span&gt;&lt;span style=&quot;box-sizing: border-box; color: var(--color-prettylights-syntax-storage-modifier-import); display: inline-block; font-family: ui-monospace, SFMono-Regular, &amp;quot;SF Mono&amp;quot;, Menlo, Consolas, &amp;quot;Liberation Mono&amp;quot;, monospace; background-color: rgb(255, 255, 255);&quot; class=&quot;pl-smi&quot;&gt;String&lt;/span&gt;&lt;span style=&quot;color: rgb(31, 35, 40); font-family: ui-monospace, SFMono-Regular, &amp;quot;SF Mono&amp;quot;, Menlo, Consolas, &amp;quot;Liberation Mono&amp;quot;, monospace; background-color: rgb(255, 255, 255);&quot;&gt;&amp;gt;): void&lt;/span&gt;&lt;br&gt;+&amp;nbsp;&lt;span style=&quot;box-sizing: border-box; color: var(--color-prettylights-syntax-entity); display: inline-block; font-family: ui-monospace, SFMono-Regular, &amp;quot;SF Mono&amp;quot;, Menlo, Consolas, &amp;quot;Liberation Mono&amp;quot;, monospace; background-color: rgb(255, 255, 255);&quot; class=&quot;pl-en&quot;&gt;updateEtapa&lt;/span&gt;&lt;span style=&quot;color: rgb(31, 35, 40); font-family: ui-monospace, SFMono-Regular, &amp;quot;SF Mono&amp;quot;, Menlo, Consolas, &amp;quot;Liberation Mono&amp;quot;, monospace; background-color: rgb(255, 255, 255);&quot;&gt;(&lt;/span&gt;&lt;span style=&quot;box-sizing: border-box; color: var(--color-prettylights-syntax-storage-modifier-import); display: inline-block; font-family: ui-monospace, SFMono-Regular, &amp;quot;SF Mono&amp;quot;, Menlo, Consolas, &amp;quot;Liberation Mono&amp;quot;, monospace; background-color: rgb(255, 255, 255);&quot; class=&quot;pl-smi&quot;&gt;boolean): void&lt;/span&gt;&lt;br&gt;+&amp;nbsp;&lt;span style=&quot;box-sizing: border-box; color: var(--color-prettylights-syntax-entity); display: inline-block; font-family: ui-monospace, SFMono-Regular, &amp;quot;SF Mono&amp;quot;, Menlo, Consolas, &amp;quot;Liberation Mono&amp;quot;, monospace; background-color: rgb(255, 255, 255);&quot; class=&quot;pl-en&quot;&gt;botonFinalizarActionPerformed&lt;/span&gt;&lt;span style=&quot;color: rgb(31, 35, 40); font-family: ui-monospace, SFMono-Regular, &amp;quot;SF Mono&amp;quot;, Menlo, Consolas, &amp;quot;Liberation Mono&amp;quot;, monospace; background-color: rgb(255, 255, 255);&quot;&gt;(&lt;/span&gt;&lt;span style=&quot;box-sizing: border-box; color: var(--color-prettylights-syntax-storage-modifier-import); display: inline-block; font-family: ui-monospace, SFMono-Regular, &amp;quot;SF Mono&amp;quot;, Menlo, Consolas, &amp;quot;Liberation Mono&amp;quot;, monospace; background-color: rgb(255, 255, 255);&quot; class=&quot;pl-smi&quot;&gt;java&lt;/span&gt;&lt;span style=&quot;color: rgb(31, 35, 40); font-family: ui-monospace, SFMono-Regular, &amp;quot;SF Mono&amp;quot;, Menlo, Consolas, &amp;quot;Liberation Mono&amp;quot;, monospace; background-color: rgb(255, 255, 255);&quot;&gt;.&lt;/span&gt;&lt;span style=&quot;box-sizing: border-box; color: var(--color-prettylights-syntax-storage-modifier-import); display: inline-block; font-family: ui-monospace, SFMono-Regular, &amp;quot;SF Mono&amp;quot;, Menlo, Consolas, &amp;quot;Liberation Mono&amp;quot;, monospace; background-color: rgb(255, 255, 255);&quot; class=&quot;pl-smi&quot;&gt;awt&lt;/span&gt;&lt;span style=&quot;color: rgb(31, 35, 40); font-family: ui-monospace, SFMono-Regular, &amp;quot;SF Mono&amp;quot;, Menlo, Consolas, &amp;quot;Liberation Mono&amp;quot;, monospace; background-color: rgb(255, 255, 255);&quot;&gt;.&lt;/span&gt;&lt;span style=&quot;box-sizing: border-box; color: var(--color-prettylights-syntax-storage-modifier-import); display: inline-block; font-family: ui-monospace, SFMono-Regular, &amp;quot;SF Mono&amp;quot;, Menlo, Consolas, &amp;quot;Liberation Mono&amp;quot;, monospace; background-color: rgb(255, 255, 255);&quot; class=&quot;pl-smi&quot;&gt;event&lt;/span&gt;&lt;span style=&quot;color: rgb(31, 35, 40); font-family: ui-monospace, SFMono-Regular, &amp;quot;SF Mono&amp;quot;, Menlo, Consolas, &amp;quot;Liberation Mono&amp;quot;, monospace; background-color: rgb(255, 255, 255);&quot;&gt;.&lt;/span&gt;&lt;span style=&quot;box-sizing: border-box; color: var(--color-prettylights-syntax-storage-modifier-import); display: inline-block; font-family: ui-monospace, SFMono-Regular, &amp;quot;SF Mono&amp;quot;, Menlo, Consolas, &amp;quot;Liberation Mono&amp;quot;, monospace; background-color: rgb(255, 255, 255);&quot; class=&quot;pl-smi&quot;&gt;ActionEvent): void&lt;/span&gt;&lt;span style=&quot;color: rgb(31, 35, 40); font-family: ui-monospace, SFMono-Regular, &amp;quot;SF Mono&amp;quot;, Menlo, Consolas, &amp;quot;Liberation Mono&amp;quot;, monospace; background-color: rgb(255, 255, 255);&quot;&gt;&lt;br&gt;+&lt;br&gt;+&lt;br&gt;+&lt;br&gt;+&lt;br&gt;&lt;/span&gt;" style="text;strokeColor=none;fillColor=none;align=left;verticalAlign=top;spacingLeft=4;spacingRight=4;overflow=hidden;rotatable=0;points=[[0,0.5],[1,0.5]];portConstraint=eastwest;whiteSpace=wrap;html=1;" parent="jCgJ07AGniD74sEElGV5-46" vertex="1">
          <mxGeometry y="128" width="520" height="192" as="geometry" />
        </mxCell>
        <mxCell id="jCgJ07AGniD74sEElGV5-50" value="VistaApuesta" style="swimlane;fontStyle=1;align=center;verticalAlign=top;childLayout=stackLayout;horizontal=1;startSize=26;horizontalStack=0;resizeParent=1;resizeParentMax=0;resizeLast=0;collapsible=1;marginBottom=0;whiteSpace=wrap;html=1;" parent="WIyWlLk6GJQsqaUBKTNV-1" vertex="1">
          <mxGeometry x="-1230" y="-570" width="510" height="450" as="geometry" />
        </mxCell>
        <mxCell id="jCgJ07AGniD74sEElGV5-51" value="+&amp;nbsp;apuestaMin: Integer&lt;br&gt;+&amp;nbsp;fichas: Integer&lt;br&gt;+&amp;nbsp;controlador:&amp;nbsp;ControladorApuesta&lt;br&gt;+&amp;nbsp;nombre:&amp;nbsp;String" style="text;strokeColor=none;fillColor=none;align=left;verticalAlign=top;spacingLeft=4;spacingRight=4;overflow=hidden;rotatable=0;points=[[0,0.5],[1,0.5]];portConstraint=eastwest;whiteSpace=wrap;html=1;" parent="jCgJ07AGniD74sEElGV5-50" vertex="1">
          <mxGeometry y="26" width="510" height="64" as="geometry" />
        </mxCell>
        <mxCell id="jCgJ07AGniD74sEElGV5-52" value="" style="line;strokeWidth=1;fillColor=none;align=left;verticalAlign=middle;spacingTop=-1;spacingLeft=3;spacingRight=3;rotatable=0;labelPosition=right;points=[];portConstraint=eastwest;strokeColor=inherit;" parent="jCgJ07AGniD74sEElGV5-50" vertex="1">
          <mxGeometry y="90" width="510" height="8" as="geometry" />
        </mxCell>
        <mxCell id="jCgJ07AGniD74sEElGV5-53" value="+ update&lt;span style=&quot;color: rgb(31, 35, 40); font-family: ui-monospace, SFMono-Regular, &amp;quot;SF Mono&amp;quot;, Menlo, Consolas, &amp;quot;Liberation Mono&amp;quot;, monospace; background-color: rgb(255, 255, 255);&quot;&gt;(&lt;/span&gt;&lt;span style=&quot;box-sizing: border-box; color: var(--color-prettylights-syntax-storage-modifier-import); display: inline-block; font-family: ui-monospace, SFMono-Regular, &amp;quot;SF Mono&amp;quot;, Menlo, Consolas, &amp;quot;Liberation Mono&amp;quot;, monospace; background-color: rgb(255, 255, 255);&quot; class=&quot;pl-smi&quot;&gt;String): void&lt;/span&gt;&lt;br&gt;+&amp;nbsp;updateApuestaMin&lt;span style=&quot;color: rgb(31, 35, 40); font-family: ui-monospace, SFMono-Regular, &amp;quot;SF Mono&amp;quot;, Menlo, Consolas, &amp;quot;Liberation Mono&amp;quot;, monospace; background-color: rgb(255, 255, 255);&quot;&gt;(&lt;/span&gt;&lt;span style=&quot;box-sizing: border-box; color: var(--color-prettylights-syntax-storage-modifier-import); display: inline-block; font-family: ui-monospace, SFMono-Regular, &amp;quot;SF Mono&amp;quot;, Menlo, Consolas, &amp;quot;Liberation Mono&amp;quot;, monospace; background-color: rgb(255, 255, 255);&quot; class=&quot;pl-smi&quot;&gt;int): void&lt;/span&gt;&lt;br&gt;+&amp;nbsp;updateApuestaInicial&lt;span style=&quot;color: rgb(31, 35, 40); font-family: ui-monospace, SFMono-Regular, &amp;quot;SF Mono&amp;quot;, Menlo, Consolas, &amp;quot;Liberation Mono&amp;quot;, monospace; background-color: rgb(255, 255, 255);&quot;&gt;(&lt;/span&gt;&lt;span style=&quot;box-sizing: border-box; color: var(--color-prettylights-syntax-storage-modifier-import); display: inline-block; font-family: ui-monospace, SFMono-Regular, &amp;quot;SF Mono&amp;quot;, Menlo, Consolas, &amp;quot;Liberation Mono&amp;quot;, monospace; background-color: rgb(255, 255, 255);&quot; class=&quot;pl-smi&quot;&gt;int): void&lt;/span&gt;&lt;br&gt;+&amp;nbsp;updateMontoBote&lt;span style=&quot;color: rgb(31, 35, 40); font-family: ui-monospace, SFMono-Regular, &amp;quot;SF Mono&amp;quot;, Menlo, Consolas, &amp;quot;Liberation Mono&amp;quot;, monospace; background-color: rgb(255, 255, 255);&quot;&gt;(&lt;/span&gt;&lt;span style=&quot;box-sizing: border-box; color: var(--color-prettylights-syntax-storage-modifier-import); display: inline-block; font-family: ui-monospace, SFMono-Regular, &amp;quot;SF Mono&amp;quot;, Menlo, Consolas, &amp;quot;Liberation Mono&amp;quot;, monospace; background-color: rgb(255, 255, 255);&quot; class=&quot;pl-smi&quot;&gt;int): void&lt;/span&gt;&lt;br&gt;+&amp;nbsp;updateTurnoActual&lt;span style=&quot;color: rgb(31, 35, 40); font-family: ui-monospace, SFMono-Regular, &amp;quot;SF Mono&amp;quot;, Menlo, Consolas, &amp;quot;Liberation Mono&amp;quot;, monospace; background-color: rgb(255, 255, 255);&quot;&gt;(&lt;/span&gt;&lt;span style=&quot;box-sizing: border-box; color: var(--color-prettylights-syntax-storage-modifier-import); display: inline-block; font-family: ui-monospace, SFMono-Regular, &amp;quot;SF Mono&amp;quot;, Menlo, Consolas, &amp;quot;Liberation Mono&amp;quot;, monospace; background-color: rgb(255, 255, 255);&quot; class=&quot;pl-smi&quot;&gt;String): void&lt;/span&gt;&lt;br&gt;+&amp;nbsp;updateJugadores&lt;span style=&quot;color: rgb(31, 35, 40); font-family: ui-monospace, SFMono-Regular, &amp;quot;SF Mono&amp;quot;, Menlo, Consolas, &amp;quot;Liberation Mono&amp;quot;, monospace; background-color: rgb(255, 255, 255);&quot;&gt;(&lt;/span&gt;&lt;span style=&quot;box-sizing: border-box; color: var(--color-prettylights-syntax-storage-modifier-import); display: inline-block; font-family: ui-monospace, SFMono-Regular, &amp;quot;SF Mono&amp;quot;, Menlo, Consolas, &amp;quot;Liberation Mono&amp;quot;, monospace; background-color: rgb(255, 255, 255);&quot; class=&quot;pl-smi&quot;&gt;ArrayList&lt;/span&gt;&lt;span style=&quot;color: rgb(31, 35, 40); font-family: ui-monospace, SFMono-Regular, &amp;quot;SF Mono&amp;quot;, Menlo, Consolas, &amp;quot;Liberation Mono&amp;quot;, monospace; background-color: rgb(255, 255, 255);&quot;&gt;&amp;lt;&lt;/span&gt;&lt;span style=&quot;box-sizing: border-box; color: var(--color-prettylights-syntax-storage-modifier-import); display: inline-block; font-family: ui-monospace, SFMono-Regular, &amp;quot;SF Mono&amp;quot;, Menlo, Consolas, &amp;quot;Liberation Mono&amp;quot;, monospace; background-color: rgb(255, 255, 255);&quot; class=&quot;pl-smi&quot;&gt;String&lt;/span&gt;&lt;span style=&quot;color: rgb(31, 35, 40); font-family: ui-monospace, SFMono-Regular, &amp;quot;SF Mono&amp;quot;, Menlo, Consolas, &amp;quot;Liberation Mono&amp;quot;, monospace; background-color: rgb(255, 255, 255);&quot;&gt;&amp;gt;): void&lt;/span&gt;&lt;br&gt;+&amp;nbsp;actualizarCartas&lt;span style=&quot;color: rgb(31, 35, 40); font-family: ui-monospace, SFMono-Regular, &amp;quot;SF Mono&amp;quot;, Menlo, Consolas, &amp;quot;Liberation Mono&amp;quot;, monospace; background-color: rgb(255, 255, 255);&quot;&gt;(&lt;/span&gt;&lt;span style=&quot;box-sizing: border-box; color: var(--color-prettylights-syntax-storage-modifier-import); display: inline-block; font-family: ui-monospace, SFMono-Regular, &amp;quot;SF Mono&amp;quot;, Menlo, Consolas, &amp;quot;Liberation Mono&amp;quot;, monospace; background-color: rgb(255, 255, 255);&quot; class=&quot;pl-smi&quot;&gt;ArrayList&lt;/span&gt;&lt;span style=&quot;color: rgb(31, 35, 40); font-family: ui-monospace, SFMono-Regular, &amp;quot;SF Mono&amp;quot;, Menlo, Consolas, &amp;quot;Liberation Mono&amp;quot;, monospace; background-color: rgb(255, 255, 255);&quot;&gt;&amp;lt;&lt;/span&gt;&lt;span style=&quot;box-sizing: border-box; color: var(--color-prettylights-syntax-storage-modifier-import); display: inline-block; font-family: ui-monospace, SFMono-Regular, &amp;quot;SF Mono&amp;quot;, Menlo, Consolas, &amp;quot;Liberation Mono&amp;quot;, monospace; background-color: rgb(255, 255, 255);&quot; class=&quot;pl-smi&quot;&gt;String&lt;/span&gt;&lt;span style=&quot;color: rgb(31, 35, 40); font-family: ui-monospace, SFMono-Regular, &amp;quot;SF Mono&amp;quot;, Menlo, Consolas, &amp;quot;Liberation Mono&amp;quot;, monospace; background-color: rgb(255, 255, 255);&quot;&gt;&amp;gt;): void&lt;/span&gt;&lt;br&gt;+&amp;nbsp;actualizarJugada&lt;span style=&quot;color: rgb(31, 35, 40); font-family: ui-monospace, SFMono-Regular, &amp;quot;SF Mono&amp;quot;, Menlo, Consolas, &amp;quot;Liberation Mono&amp;quot;, monospace; background-color: rgb(255, 255, 255);&quot;&gt;(&lt;/span&gt;&lt;span style=&quot;box-sizing: border-box; color: var(--color-prettylights-syntax-storage-modifier-import); display: inline-block; font-family: ui-monospace, SFMono-Regular, &amp;quot;SF Mono&amp;quot;, Menlo, Consolas, &amp;quot;Liberation Mono&amp;quot;, monospace; background-color: rgb(255, 255, 255);&quot; class=&quot;pl-smi&quot;&gt;String): void&lt;/span&gt;&lt;br&gt;+&amp;nbsp;setApuestas&lt;span style=&quot;color: rgb(31, 35, 40); font-family: ui-monospace, SFMono-Regular, &amp;quot;SF Mono&amp;quot;, Menlo, Consolas, &amp;quot;Liberation Mono&amp;quot;, monospace; background-color: rgb(255, 255, 255);&quot;&gt;(&lt;/span&gt;&lt;span style=&quot;box-sizing: border-box; color: var(--color-prettylights-syntax-storage-modifier-import); display: inline-block; font-family: ui-monospace, SFMono-Regular, &amp;quot;SF Mono&amp;quot;, Menlo, Consolas, &amp;quot;Liberation Mono&amp;quot;, monospace; background-color: rgb(255, 255, 255);&quot; class=&quot;pl-smi&quot;&gt;Integer): void&lt;/span&gt;&lt;br&gt;+ &lt;span style=&quot;box-sizing: border-box; color: var(--color-prettylights-syntax-entity); display: inline-block; font-family: ui-monospace, SFMono-Regular, &amp;quot;SF Mono&amp;quot;, Menlo, Consolas, &amp;quot;Liberation Mono&amp;quot;, monospace; background-color: rgb(255, 255, 255);&quot; class=&quot;pl-en&quot;&gt;setApuestaMin&lt;/span&gt;&lt;span style=&quot;color: rgb(31, 35, 40); font-family: ui-monospace, SFMono-Regular, &amp;quot;SF Mono&amp;quot;, Menlo, Consolas, &amp;quot;Liberation Mono&amp;quot;, monospace; background-color: rgb(255, 255, 255);&quot;&gt;(&lt;/span&gt;&lt;span style=&quot;box-sizing: border-box; color: var(--color-prettylights-syntax-storage-modifier-import); display: inline-block; font-family: ui-monospace, SFMono-Regular, &amp;quot;SF Mono&amp;quot;, Menlo, Consolas, &amp;quot;Liberation Mono&amp;quot;, monospace; background-color: rgb(255, 255, 255);&quot; class=&quot;pl-smi&quot;&gt;Integer): void&lt;/span&gt;&lt;br&gt;+&amp;nbsp;setNombre&lt;span style=&quot;color: rgb(31, 35, 40); font-family: ui-monospace, SFMono-Regular, &amp;quot;SF Mono&amp;quot;, Menlo, Consolas, &amp;quot;Liberation Mono&amp;quot;, monospace; background-color: rgb(255, 255, 255);&quot;&gt;(&lt;/span&gt;&lt;span style=&quot;box-sizing: border-box; color: var(--color-prettylights-syntax-storage-modifier-import); display: inline-block; font-family: ui-monospace, SFMono-Regular, &amp;quot;SF Mono&amp;quot;, Menlo, Consolas, &amp;quot;Liberation Mono&amp;quot;, monospace; background-color: rgb(255, 255, 255);&quot; class=&quot;pl-smi&quot;&gt;String): void&lt;/span&gt;&lt;br&gt;+&amp;nbsp;setControlador&lt;span style=&quot;color: rgb(31, 35, 40); font-family: ui-monospace, SFMono-Regular, &amp;quot;SF Mono&amp;quot;, Menlo, Consolas, &amp;quot;Liberation Mono&amp;quot;, monospace; background-color: rgb(255, 255, 255);&quot;&gt;(&lt;/span&gt;&lt;span style=&quot;box-sizing: border-box; color: var(--color-prettylights-syntax-storage-modifier-import); display: inline-block; font-family: ui-monospace, SFMono-Regular, &amp;quot;SF Mono&amp;quot;, Menlo, Consolas, &amp;quot;Liberation Mono&amp;quot;, monospace; background-color: rgb(255, 255, 255);&quot; class=&quot;pl-smi&quot;&gt;ControladorApuesta): void&lt;/span&gt;&lt;br&gt;+&amp;nbsp;setCantidadeFichas&lt;span style=&quot;color: rgb(31, 35, 40); font-family: ui-monospace, SFMono-Regular, &amp;quot;SF Mono&amp;quot;, Menlo, Consolas, &amp;quot;Liberation Mono&amp;quot;, monospace; background-color: rgb(255, 255, 255);&quot;&gt;(&lt;/span&gt;&lt;span style=&quot;box-sizing: border-box; color: var(--color-prettylights-syntax-storage-modifier-import); display: inline-block; font-family: ui-monospace, SFMono-Regular, &amp;quot;SF Mono&amp;quot;, Menlo, Consolas, &amp;quot;Liberation Mono&amp;quot;, monospace; background-color: rgb(255, 255, 255);&quot; class=&quot;pl-smi&quot;&gt;int): void&lt;/span&gt;&lt;br&gt;+&amp;nbsp;setImagenes&lt;span style=&quot;color: rgb(31, 35, 40); font-family: ui-monospace, SFMono-Regular, &amp;quot;SF Mono&amp;quot;, Menlo, Consolas, &amp;quot;Liberation Mono&amp;quot;, monospace; background-color: rgb(255, 255, 255);&quot;&gt;(&lt;/span&gt;&lt;span style=&quot;box-sizing: border-box; color: var(--color-prettylights-syntax-storage-modifier-import); display: inline-block; font-family: ui-monospace, SFMono-Regular, &amp;quot;SF Mono&amp;quot;, Menlo, Consolas, &amp;quot;Liberation Mono&amp;quot;, monospace; background-color: rgb(255, 255, 255);&quot; class=&quot;pl-smi&quot;&gt;ArrayList&lt;/span&gt;&lt;span style=&quot;color: rgb(31, 35, 40); font-family: ui-monospace, SFMono-Regular, &amp;quot;SF Mono&amp;quot;, Menlo, Consolas, &amp;quot;Liberation Mono&amp;quot;, monospace; background-color: rgb(255, 255, 255);&quot;&gt;&amp;lt;&lt;/span&gt;&lt;span style=&quot;box-sizing: border-box; color: var(--color-prettylights-syntax-storage-modifier-import); display: inline-block; font-family: ui-monospace, SFMono-Regular, &amp;quot;SF Mono&amp;quot;, Menlo, Consolas, &amp;quot;Liberation Mono&amp;quot;, monospace; background-color: rgb(255, 255, 255);&quot; class=&quot;pl-smi&quot;&gt;String&lt;/span&gt;&lt;span style=&quot;color: rgb(31, 35, 40); font-family: ui-monospace, SFMono-Regular, &amp;quot;SF Mono&amp;quot;, Menlo, Consolas, &amp;quot;Liberation Mono&amp;quot;, monospace; background-color: rgb(255, 255, 255);&quot;&gt;&amp;gt;): void&lt;/span&gt;&lt;br&gt;+&amp;nbsp;botonPasarActionPerformed&lt;span style=&quot;color: rgb(31, 35, 40); font-family: ui-monospace, SFMono-Regular, &amp;quot;SF Mono&amp;quot;, Menlo, Consolas, &amp;quot;Liberation Mono&amp;quot;, monospace; background-color: rgb(255, 255, 255);&quot;&gt;(&lt;/span&gt;&lt;span style=&quot;box-sizing: border-box; color: var(--color-prettylights-syntax-storage-modifier-import); display: inline-block; font-family: ui-monospace, SFMono-Regular, &amp;quot;SF Mono&amp;quot;, Menlo, Consolas, &amp;quot;Liberation Mono&amp;quot;, monospace; background-color: rgb(255, 255, 255);&quot; class=&quot;pl-smi&quot;&gt;java&lt;/span&gt;&lt;span style=&quot;color: rgb(31, 35, 40); font-family: ui-monospace, SFMono-Regular, &amp;quot;SF Mono&amp;quot;, Menlo, Consolas, &amp;quot;Liberation Mono&amp;quot;, monospace; background-color: rgb(255, 255, 255);&quot;&gt;.&lt;/span&gt;&lt;span style=&quot;box-sizing: border-box; color: var(--color-prettylights-syntax-storage-modifier-import); display: inline-block; font-family: ui-monospace, SFMono-Regular, &amp;quot;SF Mono&amp;quot;, Menlo, Consolas, &amp;quot;Liberation Mono&amp;quot;, monospace; background-color: rgb(255, 255, 255);&quot; class=&quot;pl-smi&quot;&gt;awt&lt;/span&gt;&lt;span style=&quot;color: rgb(31, 35, 40); font-family: ui-monospace, SFMono-Regular, &amp;quot;SF Mono&amp;quot;, Menlo, Consolas, &amp;quot;Liberation Mono&amp;quot;, monospace; background-color: rgb(255, 255, 255);&quot;&gt;.&lt;/span&gt;&lt;span style=&quot;box-sizing: border-box; color: var(--color-prettylights-syntax-storage-modifier-import); display: inline-block; font-family: ui-monospace, SFMono-Regular, &amp;quot;SF Mono&amp;quot;, Menlo, Consolas, &amp;quot;Liberation Mono&amp;quot;, monospace; background-color: rgb(255, 255, 255);&quot; class=&quot;pl-smi&quot;&gt;event&lt;/span&gt;&lt;span style=&quot;color: rgb(31, 35, 40); font-family: ui-monospace, SFMono-Regular, &amp;quot;SF Mono&amp;quot;, Menlo, Consolas, &amp;quot;Liberation Mono&amp;quot;, monospace; background-color: rgb(255, 255, 255);&quot;&gt;.&lt;/span&gt;&lt;span style=&quot;box-sizing: border-box; color: var(--color-prettylights-syntax-storage-modifier-import); display: inline-block; font-family: ui-monospace, SFMono-Regular, &amp;quot;SF Mono&amp;quot;, Menlo, Consolas, &amp;quot;Liberation Mono&amp;quot;, monospace; background-color: rgb(255, 255, 255);&quot; class=&quot;pl-smi&quot;&gt;ActionEvent): void&lt;/span&gt;&lt;br&gt;+&amp;nbsp;botonIgualarActionPerformed&lt;span style=&quot;color: rgb(31, 35, 40); font-family: ui-monospace, SFMono-Regular, &amp;quot;SF Mono&amp;quot;, Menlo, Consolas, &amp;quot;Liberation Mono&amp;quot;, monospace; background-color: rgb(255, 255, 255);&quot;&gt;(&lt;/span&gt;&lt;span style=&quot;box-sizing: border-box; color: var(--color-prettylights-syntax-storage-modifier-import); display: inline-block; font-family: ui-monospace, SFMono-Regular, &amp;quot;SF Mono&amp;quot;, Menlo, Consolas, &amp;quot;Liberation Mono&amp;quot;, monospace; background-color: rgb(255, 255, 255);&quot; class=&quot;pl-smi&quot;&gt;java&lt;/span&gt;&lt;span style=&quot;color: rgb(31, 35, 40); font-family: ui-monospace, SFMono-Regular, &amp;quot;SF Mono&amp;quot;, Menlo, Consolas, &amp;quot;Liberation Mono&amp;quot;, monospace; background-color: rgb(255, 255, 255);&quot;&gt;.&lt;/span&gt;&lt;span style=&quot;box-sizing: border-box; color: var(--color-prettylights-syntax-storage-modifier-import); display: inline-block; font-family: ui-monospace, SFMono-Regular, &amp;quot;SF Mono&amp;quot;, Menlo, Consolas, &amp;quot;Liberation Mono&amp;quot;, monospace; background-color: rgb(255, 255, 255);&quot; class=&quot;pl-smi&quot;&gt;awt&lt;/span&gt;&lt;span style=&quot;color: rgb(31, 35, 40); font-family: ui-monospace, SFMono-Regular, &amp;quot;SF Mono&amp;quot;, Menlo, Consolas, &amp;quot;Liberation Mono&amp;quot;, monospace; background-color: rgb(255, 255, 255);&quot;&gt;.&lt;/span&gt;&lt;span style=&quot;box-sizing: border-box; color: var(--color-prettylights-syntax-storage-modifier-import); display: inline-block; font-family: ui-monospace, SFMono-Regular, &amp;quot;SF Mono&amp;quot;, Menlo, Consolas, &amp;quot;Liberation Mono&amp;quot;, monospace; background-color: rgb(255, 255, 255);&quot; class=&quot;pl-smi&quot;&gt;event&lt;/span&gt;&lt;span style=&quot;color: rgb(31, 35, 40); font-family: ui-monospace, SFMono-Regular, &amp;quot;SF Mono&amp;quot;, Menlo, Consolas, &amp;quot;Liberation Mono&amp;quot;, monospace; background-color: rgb(255, 255, 255);&quot;&gt;.&lt;/span&gt;&lt;span style=&quot;box-sizing: border-box; color: var(--color-prettylights-syntax-storage-modifier-import); display: inline-block; font-family: ui-monospace, SFMono-Regular, &amp;quot;SF Mono&amp;quot;, Menlo, Consolas, &amp;quot;Liberation Mono&amp;quot;, monospace; background-color: rgb(255, 255, 255);&quot; class=&quot;pl-smi&quot;&gt;ActionEvent): void&lt;/span&gt;&lt;br&gt;+&amp;nbsp;botonRetirarseActionPerformed&lt;span style=&quot;color: rgb(31, 35, 40); font-family: ui-monospace, SFMono-Regular, &amp;quot;SF Mono&amp;quot;, Menlo, Consolas, &amp;quot;Liberation Mono&amp;quot;, monospace; background-color: rgb(255, 255, 255);&quot;&gt;(&lt;/span&gt;&lt;span style=&quot;box-sizing: border-box; color: var(--color-prettylights-syntax-storage-modifier-import); display: inline-block; font-family: ui-monospace, SFMono-Regular, &amp;quot;SF Mono&amp;quot;, Menlo, Consolas, &amp;quot;Liberation Mono&amp;quot;, monospace; background-color: rgb(255, 255, 255);&quot; class=&quot;pl-smi&quot;&gt;java&lt;/span&gt;&lt;span style=&quot;color: rgb(31, 35, 40); font-family: ui-monospace, SFMono-Regular, &amp;quot;SF Mono&amp;quot;, Menlo, Consolas, &amp;quot;Liberation Mono&amp;quot;, monospace; background-color: rgb(255, 255, 255);&quot;&gt;.&lt;/span&gt;&lt;span style=&quot;box-sizing: border-box; color: var(--color-prettylights-syntax-storage-modifier-import); display: inline-block; font-family: ui-monospace, SFMono-Regular, &amp;quot;SF Mono&amp;quot;, Menlo, Consolas, &amp;quot;Liberation Mono&amp;quot;, monospace; background-color: rgb(255, 255, 255);&quot; class=&quot;pl-smi&quot;&gt;awt&lt;/span&gt;&lt;span style=&quot;color: rgb(31, 35, 40); font-family: ui-monospace, SFMono-Regular, &amp;quot;SF Mono&amp;quot;, Menlo, Consolas, &amp;quot;Liberation Mono&amp;quot;, monospace; background-color: rgb(255, 255, 255);&quot;&gt;.&lt;/span&gt;&lt;span style=&quot;box-sizing: border-box; color: var(--color-prettylights-syntax-storage-modifier-import); display: inline-block; font-family: ui-monospace, SFMono-Regular, &amp;quot;SF Mono&amp;quot;, Menlo, Consolas, &amp;quot;Liberation Mono&amp;quot;, monospace; background-color: rgb(255, 255, 255);&quot; class=&quot;pl-smi&quot;&gt;event&lt;/span&gt;&lt;span style=&quot;color: rgb(31, 35, 40); font-family: ui-monospace, SFMono-Regular, &amp;quot;SF Mono&amp;quot;, Menlo, Consolas, &amp;quot;Liberation Mono&amp;quot;, monospace; background-color: rgb(255, 255, 255);&quot;&gt;.&lt;/span&gt;&lt;span style=&quot;box-sizing: border-box; color: var(--color-prettylights-syntax-storage-modifier-import); display: inline-block; font-family: ui-monospace, SFMono-Regular, &amp;quot;SF Mono&amp;quot;, Menlo, Consolas, &amp;quot;Liberation Mono&amp;quot;, monospace; background-color: rgb(255, 255, 255);&quot; class=&quot;pl-smi&quot;&gt;ActionEvent): void&lt;/span&gt;&lt;br&gt;+&amp;nbsp;botonApuestaActionPerformed&lt;span style=&quot;color: rgb(31, 35, 40); font-family: ui-monospace, SFMono-Regular, &amp;quot;SF Mono&amp;quot;, Menlo, Consolas, &amp;quot;Liberation Mono&amp;quot;, monospace; background-color: rgb(255, 255, 255);&quot;&gt;(&lt;/span&gt;&lt;span style=&quot;box-sizing: border-box; color: var(--color-prettylights-syntax-storage-modifier-import); display: inline-block; font-family: ui-monospace, SFMono-Regular, &amp;quot;SF Mono&amp;quot;, Menlo, Consolas, &amp;quot;Liberation Mono&amp;quot;, monospace; background-color: rgb(255, 255, 255);&quot; class=&quot;pl-smi&quot;&gt;java&lt;/span&gt;&lt;span style=&quot;color: rgb(31, 35, 40); font-family: ui-monospace, SFMono-Regular, &amp;quot;SF Mono&amp;quot;, Menlo, Consolas, &amp;quot;Liberation Mono&amp;quot;, monospace; background-color: rgb(255, 255, 255);&quot;&gt;.&lt;/span&gt;&lt;span style=&quot;box-sizing: border-box; color: var(--color-prettylights-syntax-storage-modifier-import); display: inline-block; font-family: ui-monospace, SFMono-Regular, &amp;quot;SF Mono&amp;quot;, Menlo, Consolas, &amp;quot;Liberation Mono&amp;quot;, monospace; background-color: rgb(255, 255, 255);&quot; class=&quot;pl-smi&quot;&gt;awt&lt;/span&gt;&lt;span style=&quot;color: rgb(31, 35, 40); font-family: ui-monospace, SFMono-Regular, &amp;quot;SF Mono&amp;quot;, Menlo, Consolas, &amp;quot;Liberation Mono&amp;quot;, monospace; background-color: rgb(255, 255, 255);&quot;&gt;.&lt;/span&gt;&lt;span style=&quot;box-sizing: border-box; color: var(--color-prettylights-syntax-storage-modifier-import); display: inline-block; font-family: ui-monospace, SFMono-Regular, &amp;quot;SF Mono&amp;quot;, Menlo, Consolas, &amp;quot;Liberation Mono&amp;quot;, monospace; background-color: rgb(255, 255, 255);&quot; class=&quot;pl-smi&quot;&gt;event&lt;/span&gt;&lt;span style=&quot;color: rgb(31, 35, 40); font-family: ui-monospace, SFMono-Regular, &amp;quot;SF Mono&amp;quot;, Menlo, Consolas, &amp;quot;Liberation Mono&amp;quot;, monospace; background-color: rgb(255, 255, 255);&quot;&gt;.&lt;/span&gt;&lt;span style=&quot;box-sizing: border-box; color: var(--color-prettylights-syntax-storage-modifier-import); display: inline-block; font-family: ui-monospace, SFMono-Regular, &amp;quot;SF Mono&amp;quot;, Menlo, Consolas, &amp;quot;Liberation Mono&amp;quot;, monospace; background-color: rgb(255, 255, 255);&quot; class=&quot;pl-smi&quot;&gt;ActionEvent): void&lt;/span&gt;&lt;br&gt;+&amp;nbsp;textoApuestaKeyTyped&lt;span style=&quot;color: rgb(31, 35, 40); font-family: ui-monospace, SFMono-Regular, &amp;quot;SF Mono&amp;quot;, Menlo, Consolas, &amp;quot;Liberation Mono&amp;quot;, monospace; background-color: rgb(255, 255, 255);&quot;&gt;(&lt;/span&gt;&lt;span style=&quot;box-sizing: border-box; color: var(--color-prettylights-syntax-storage-modifier-import); display: inline-block; font-family: ui-monospace, SFMono-Regular, &amp;quot;SF Mono&amp;quot;, Menlo, Consolas, &amp;quot;Liberation Mono&amp;quot;, monospace; background-color: rgb(255, 255, 255);&quot; class=&quot;pl-smi&quot;&gt;java&lt;/span&gt;&lt;span style=&quot;color: rgb(31, 35, 40); font-family: ui-monospace, SFMono-Regular, &amp;quot;SF Mono&amp;quot;, Menlo, Consolas, &amp;quot;Liberation Mono&amp;quot;, monospace; background-color: rgb(255, 255, 255);&quot;&gt;.&lt;/span&gt;&lt;span style=&quot;box-sizing: border-box; color: var(--color-prettylights-syntax-storage-modifier-import); display: inline-block; font-family: ui-monospace, SFMono-Regular, &amp;quot;SF Mono&amp;quot;, Menlo, Consolas, &amp;quot;Liberation Mono&amp;quot;, monospace; background-color: rgb(255, 255, 255);&quot; class=&quot;pl-smi&quot;&gt;awt&lt;/span&gt;&lt;span style=&quot;color: rgb(31, 35, 40); font-family: ui-monospace, SFMono-Regular, &amp;quot;SF Mono&amp;quot;, Menlo, Consolas, &amp;quot;Liberation Mono&amp;quot;, monospace; background-color: rgb(255, 255, 255);&quot;&gt;.&lt;/span&gt;&lt;span style=&quot;box-sizing: border-box; color: var(--color-prettylights-syntax-storage-modifier-import); display: inline-block; font-family: ui-monospace, SFMono-Regular, &amp;quot;SF Mono&amp;quot;, Menlo, Consolas, &amp;quot;Liberation Mono&amp;quot;, monospace; background-color: rgb(255, 255, 255);&quot; class=&quot;pl-smi&quot;&gt;event&lt;/span&gt;&lt;span style=&quot;color: rgb(31, 35, 40); font-family: ui-monospace, SFMono-Regular, &amp;quot;SF Mono&amp;quot;, Menlo, Consolas, &amp;quot;Liberation Mono&amp;quot;, monospace; background-color: rgb(255, 255, 255);&quot;&gt;.&lt;/span&gt;&lt;span style=&quot;box-sizing: border-box; color: var(--color-prettylights-syntax-storage-modifier-import); display: inline-block; font-family: ui-monospace, SFMono-Regular, &amp;quot;SF Mono&amp;quot;, Menlo, Consolas, &amp;quot;Liberation Mono&amp;quot;, monospace; background-color: rgb(255, 255, 255);&quot; class=&quot;pl-smi&quot;&gt;KeyEvent):void&lt;/span&gt;&lt;br&gt;+&amp;nbsp;textoApuestaFocusGained&lt;span style=&quot;color: rgb(31, 35, 40); font-family: ui-monospace, SFMono-Regular, &amp;quot;SF Mono&amp;quot;, Menlo, Consolas, &amp;quot;Liberation Mono&amp;quot;, monospace; background-color: rgb(255, 255, 255);&quot;&gt;(&lt;/span&gt;&lt;span style=&quot;box-sizing: border-box; color: var(--color-prettylights-syntax-storage-modifier-import); display: inline-block; font-family: ui-monospace, SFMono-Regular, &amp;quot;SF Mono&amp;quot;, Menlo, Consolas, &amp;quot;Liberation Mono&amp;quot;, monospace; background-color: rgb(255, 255, 255);&quot; class=&quot;pl-smi&quot;&gt;java&lt;/span&gt;&lt;span style=&quot;color: rgb(31, 35, 40); font-family: ui-monospace, SFMono-Regular, &amp;quot;SF Mono&amp;quot;, Menlo, Consolas, &amp;quot;Liberation Mono&amp;quot;, monospace; background-color: rgb(255, 255, 255);&quot;&gt;.&lt;/span&gt;&lt;span style=&quot;box-sizing: border-box; color: var(--color-prettylights-syntax-storage-modifier-import); display: inline-block; font-family: ui-monospace, SFMono-Regular, &amp;quot;SF Mono&amp;quot;, Menlo, Consolas, &amp;quot;Liberation Mono&amp;quot;, monospace; background-color: rgb(255, 255, 255);&quot; class=&quot;pl-smi&quot;&gt;awt&lt;/span&gt;&lt;span style=&quot;color: rgb(31, 35, 40); font-family: ui-monospace, SFMono-Regular, &amp;quot;SF Mono&amp;quot;, Menlo, Consolas, &amp;quot;Liberation Mono&amp;quot;, monospace; background-color: rgb(255, 255, 255);&quot;&gt;.&lt;/span&gt;&lt;span style=&quot;box-sizing: border-box; color: var(--color-prettylights-syntax-storage-modifier-import); display: inline-block; font-family: ui-monospace, SFMono-Regular, &amp;quot;SF Mono&amp;quot;, Menlo, Consolas, &amp;quot;Liberation Mono&amp;quot;, monospace; background-color: rgb(255, 255, 255);&quot; class=&quot;pl-smi&quot;&gt;event&lt;/span&gt;&lt;span style=&quot;color: rgb(31, 35, 40); font-family: ui-monospace, SFMono-Regular, &amp;quot;SF Mono&amp;quot;, Menlo, Consolas, &amp;quot;Liberation Mono&amp;quot;, monospace; background-color: rgb(255, 255, 255);&quot;&gt;.&lt;/span&gt;&lt;span style=&quot;box-sizing: border-box; color: var(--color-prettylights-syntax-storage-modifier-import); display: inline-block; font-family: ui-monospace, SFMono-Regular, &amp;quot;SF Mono&amp;quot;, Menlo, Consolas, &amp;quot;Liberation Mono&amp;quot;, monospace; background-color: rgb(255, 255, 255);&quot; class=&quot;pl-smi&quot;&gt;FocusEvent): void&lt;/span&gt;&lt;br&gt;+&amp;nbsp;textoApuestaFocusLost&lt;span style=&quot;color: rgb(31, 35, 40); font-family: ui-monospace, SFMono-Regular, &amp;quot;SF Mono&amp;quot;, Menlo, Consolas, &amp;quot;Liberation Mono&amp;quot;, monospace; background-color: rgb(255, 255, 255);&quot;&gt;(&lt;/span&gt;&lt;span style=&quot;box-sizing: border-box; color: var(--color-prettylights-syntax-storage-modifier-import); display: inline-block; font-family: ui-monospace, SFMono-Regular, &amp;quot;SF Mono&amp;quot;, Menlo, Consolas, &amp;quot;Liberation Mono&amp;quot;, monospace; background-color: rgb(255, 255, 255);&quot; class=&quot;pl-smi&quot;&gt;java&lt;/span&gt;&lt;span style=&quot;color: rgb(31, 35, 40); font-family: ui-monospace, SFMono-Regular, &amp;quot;SF Mono&amp;quot;, Menlo, Consolas, &amp;quot;Liberation Mono&amp;quot;, monospace; background-color: rgb(255, 255, 255);&quot;&gt;.&lt;/span&gt;&lt;span style=&quot;box-sizing: border-box; color: var(--color-prettylights-syntax-storage-modifier-import); display: inline-block; font-family: ui-monospace, SFMono-Regular, &amp;quot;SF Mono&amp;quot;, Menlo, Consolas, &amp;quot;Liberation Mono&amp;quot;, monospace; background-color: rgb(255, 255, 255);&quot; class=&quot;pl-smi&quot;&gt;awt&lt;/span&gt;&lt;span style=&quot;color: rgb(31, 35, 40); font-family: ui-monospace, SFMono-Regular, &amp;quot;SF Mono&amp;quot;, Menlo, Consolas, &amp;quot;Liberation Mono&amp;quot;, monospace; background-color: rgb(255, 255, 255);&quot;&gt;.&lt;/span&gt;&lt;span style=&quot;box-sizing: border-box; color: var(--color-prettylights-syntax-storage-modifier-import); display: inline-block; font-family: ui-monospace, SFMono-Regular, &amp;quot;SF Mono&amp;quot;, Menlo, Consolas, &amp;quot;Liberation Mono&amp;quot;, monospace; background-color: rgb(255, 255, 255);&quot; class=&quot;pl-smi&quot;&gt;event&lt;/span&gt;&lt;span style=&quot;color: rgb(31, 35, 40); font-family: ui-monospace, SFMono-Regular, &amp;quot;SF Mono&amp;quot;, Menlo, Consolas, &amp;quot;Liberation Mono&amp;quot;, monospace; background-color: rgb(255, 255, 255);&quot;&gt;.&lt;/span&gt;&lt;span style=&quot;box-sizing: border-box; color: var(--color-prettylights-syntax-storage-modifier-import); display: inline-block; font-family: ui-monospace, SFMono-Regular, &amp;quot;SF Mono&amp;quot;, Menlo, Consolas, &amp;quot;Liberation Mono&amp;quot;, monospace; background-color: rgb(255, 255, 255);&quot; class=&quot;pl-smi&quot;&gt;FocusEvent): void&lt;/span&gt;&lt;br&gt;+ updateEtapa&lt;span style=&quot;color: rgb(31, 35, 40); font-family: ui-monospace, SFMono-Regular, &amp;quot;SF Mono&amp;quot;, Menlo, Consolas, &amp;quot;Liberation Mono&amp;quot;, monospace; background-color: rgb(255, 255, 255);&quot;&gt;(&lt;/span&gt;&lt;span style=&quot;box-sizing: border-box; color: var(--color-prettylights-syntax-storage-modifier-import); display: inline-block; font-family: ui-monospace, SFMono-Regular, &amp;quot;SF Mono&amp;quot;, Menlo, Consolas, &amp;quot;Liberation Mono&amp;quot;, monospace; background-color: rgb(255, 255, 255);&quot; class=&quot;pl-smi&quot;&gt;boolean): void&lt;br&gt;&lt;/span&gt;" style="text;strokeColor=none;fillColor=none;align=left;verticalAlign=top;spacingLeft=4;spacingRight=4;overflow=hidden;rotatable=0;points=[[0,0.5],[1,0.5]];portConstraint=eastwest;whiteSpace=wrap;html=1;" parent="jCgJ07AGniD74sEElGV5-50" vertex="1">
          <mxGeometry y="98" width="510" height="352" as="geometry" />
        </mxCell>
        <mxCell id="jCgJ07AGniD74sEElGV5-54" value="«interface»&lt;br&gt;&lt;b&gt;Observer&lt;/b&gt;" style="html=1;whiteSpace=wrap;" parent="WIyWlLk6GJQsqaUBKTNV-1" vertex="1">
          <mxGeometry x="-1450" y="-500" width="110" height="50" as="geometry" />
        </mxCell>
        <mxCell id="jCgJ07AGniD74sEElGV5-55" value="«interface»&lt;br&gt;&lt;b&gt;VerCartas&lt;/b&gt;" style="html=1;whiteSpace=wrap;" parent="WIyWlLk6GJQsqaUBKTNV-1" vertex="1">
          <mxGeometry x="-1470" y="-350" width="110" height="50" as="geometry" />
        </mxCell>
        <mxCell id="VlVq8zEwPOwb3AWTw42Q-1" value="«interface»&lt;br&gt;&lt;b&gt;Observer&lt;/b&gt;" style="html=1;whiteSpace=wrap;" vertex="1" parent="WIyWlLk6GJQsqaUBKTNV-1">
          <mxGeometry x="-1480" y="120" width="110" height="50" as="geometry" />
        </mxCell>
        <mxCell id="VlVq8zEwPOwb3AWTw42Q-2" value="«interface»&lt;br&gt;&lt;b&gt;VerCartas&lt;/b&gt;" style="html=1;whiteSpace=wrap;" vertex="1" parent="WIyWlLk6GJQsqaUBKTNV-1">
          <mxGeometry x="-1470" y="-40" width="110" height="50" as="geometry" />
        </mxCell>
        <mxCell id="VlVq8zEwPOwb3AWTw42Q-3" value="" style="endArrow=classic;html=1;rounded=0;" edge="1" parent="WIyWlLk6GJQsqaUBKTNV-1">
          <mxGeometry width="50" height="50" relative="1" as="geometry">
            <mxPoint x="-1150" y="-400" as="sourcePoint" />
            <mxPoint x="-1100" y="-450" as="targetPoint" />
          </mxGeometry>
        </mxCell>
        <mxCell id="VlVq8zEwPOwb3AWTw42Q-19" style="edgeStyle=orthogonalEdgeStyle;rounded=0;orthogonalLoop=1;jettySize=auto;html=1;entryX=0.577;entryY=0;entryDx=0;entryDy=0;entryPerimeter=0;" edge="1" parent="WIyWlLk6GJQsqaUBKTNV-1" source="jCgJ07AGniD74sEElGV5-0" target="jCgJ07AGniD74sEElGV5-33">
          <mxGeometry relative="1" as="geometry" />
        </mxCell>
        <mxCell id="VlVq8zEwPOwb3AWTw42Q-20" style="edgeStyle=orthogonalEdgeStyle;rounded=0;orthogonalLoop=1;jettySize=auto;html=1;exitX=1;exitY=0.5;exitDx=0;exitDy=0;entryX=-0.025;entryY=0.992;entryDx=0;entryDy=0;entryPerimeter=0;" edge="1" parent="WIyWlLk6GJQsqaUBKTNV-1" source="jCgJ07AGniD74sEElGV5-34" target="jCgJ07AGniD74sEElGV5-21">
          <mxGeometry relative="1" as="geometry" />
        </mxCell>
        <mxCell id="VlVq8zEwPOwb3AWTw42Q-22" style="edgeStyle=orthogonalEdgeStyle;rounded=0;orthogonalLoop=1;jettySize=auto;html=1;entryX=0.497;entryY=1;entryDx=0;entryDy=0;entryPerimeter=0;" edge="1" parent="WIyWlLk6GJQsqaUBKTNV-1" source="jCgJ07AGniD74sEElGV5-25" target="jCgJ07AGniD74sEElGV5-23">
          <mxGeometry relative="1" as="geometry" />
        </mxCell>
        <mxCell id="VlVq8zEwPOwb3AWTw42Q-25" style="edgeStyle=orthogonalEdgeStyle;rounded=0;orthogonalLoop=1;jettySize=auto;html=1;entryX=1;entryY=0.5;entryDx=0;entryDy=0;" edge="1" parent="WIyWlLk6GJQsqaUBKTNV-1" source="jCgJ07AGniD74sEElGV5-13" target="jCgJ07AGniD74sEElGV5-38">
          <mxGeometry relative="1" as="geometry" />
        </mxCell>
        <mxCell id="VlVq8zEwPOwb3AWTw42Q-26" style="edgeStyle=orthogonalEdgeStyle;rounded=0;orthogonalLoop=1;jettySize=auto;html=1;" edge="1" parent="WIyWlLk6GJQsqaUBKTNV-1" source="jCgJ07AGniD74sEElGV5-11" target="jCgJ07AGniD74sEElGV5-42">
          <mxGeometry relative="1" as="geometry" />
        </mxCell>
        <mxCell id="VlVq8zEwPOwb3AWTw42Q-27" style="edgeStyle=orthogonalEdgeStyle;rounded=0;orthogonalLoop=1;jettySize=auto;html=1;entryX=1.008;entryY=0.456;entryDx=0;entryDy=0;entryPerimeter=0;" edge="1" parent="WIyWlLk6GJQsqaUBKTNV-1" source="jCgJ07AGniD74sEElGV5-44" target="jCgJ07AGniD74sEElGV5-53">
          <mxGeometry relative="1" as="geometry" />
        </mxCell>
        <mxCell id="VlVq8zEwPOwb3AWTw42Q-28" style="edgeStyle=orthogonalEdgeStyle;rounded=0;orthogonalLoop=1;jettySize=auto;html=1;entryX=1.012;entryY=0.926;entryDx=0;entryDy=0;entryPerimeter=0;" edge="1" parent="WIyWlLk6GJQsqaUBKTNV-1" source="jCgJ07AGniD74sEElGV5-38" target="jCgJ07AGniD74sEElGV5-47">
          <mxGeometry relative="1" as="geometry" />
        </mxCell>
        <mxCell id="VlVq8zEwPOwb3AWTw42Q-29" style="edgeStyle=orthogonalEdgeStyle;rounded=0;orthogonalLoop=1;jettySize=auto;html=1;entryX=1;entryY=0.5;entryDx=0;entryDy=0;" edge="1" parent="WIyWlLk6GJQsqaUBKTNV-1" source="jCgJ07AGniD74sEElGV5-49" target="VlVq8zEwPOwb3AWTw42Q-1">
          <mxGeometry relative="1" as="geometry" />
        </mxCell>
        <mxCell id="VlVq8zEwPOwb3AWTw42Q-30" style="edgeStyle=orthogonalEdgeStyle;rounded=0;orthogonalLoop=1;jettySize=auto;html=1;exitX=0;exitY=0.5;exitDx=0;exitDy=0;entryX=1;entryY=0.5;entryDx=0;entryDy=0;" edge="1" parent="WIyWlLk6GJQsqaUBKTNV-1" source="jCgJ07AGniD74sEElGV5-47" target="VlVq8zEwPOwb3AWTw42Q-2">
          <mxGeometry relative="1" as="geometry" />
        </mxCell>
        <mxCell id="VlVq8zEwPOwb3AWTw42Q-31" style="edgeStyle=orthogonalEdgeStyle;rounded=0;orthogonalLoop=1;jettySize=auto;html=1;entryX=1;entryY=0.75;entryDx=0;entryDy=0;" edge="1" parent="WIyWlLk6GJQsqaUBKTNV-1" source="jCgJ07AGniD74sEElGV5-53" target="jCgJ07AGniD74sEElGV5-55">
          <mxGeometry relative="1" as="geometry" />
        </mxCell>
        <mxCell id="VlVq8zEwPOwb3AWTw42Q-32" style="edgeStyle=orthogonalEdgeStyle;rounded=0;orthogonalLoop=1;jettySize=auto;html=1;entryX=1;entryY=0.75;entryDx=0;entryDy=0;" edge="1" parent="WIyWlLk6GJQsqaUBKTNV-1" source="jCgJ07AGniD74sEElGV5-51" target="jCgJ07AGniD74sEElGV5-54">
          <mxGeometry relative="1" as="geometry" />
        </mxCell>
      </root>
    </mxGraphModel>
  </diagram>
</mxfile>
